<svg width="319" height="300" viewBox="0 0 319 300" fill="none" xmlns="http://www.w3.org/2000/svg">
<path d="M279.269 223.591H298.52V215.456H279.269V223.591Z" fill="#EBEBEB"/>
<path d="M290.007 233.849H309.258V225.714H290.007V233.849Z" fill="#EBEBEB"/>
<path d="M268.523 233.849H287.775V225.714H268.523V233.849Z" fill="#EBEBEB"/>
<path d="M20.3932 233.849H39.6445V225.714H20.3932V233.849Z" fill="#EBEBEB"/>
<path d="M20.3932 14.3191L39.6445 14.3191V6.18378L20.3932 6.18378V14.3191Z" fill="#EBEBEB"/>
<path d="M9.65487 24.5774L28.9062 24.5774V16.4421H9.65487V24.5774Z" fill="#EBEBEB"/>
<path d="M290.007 14.3264L309.258 14.3264V6.19111L290.007 6.19111V14.3264Z" fill="#EBEBEB"/>
<path d="M256.208 102.993H236.956V111.129H256.208V102.993Z" fill="#EBEBEB"/>
<path d="M245.47 92.7351H226.218V100.87H245.47V92.7351Z" fill="#EBEBEB"/>
<path d="M27.5249 27.3254H155.276V205.735H27.5249V27.3254ZM151.459 31.1132H31.3127V201.962H151.459V31.1132Z" fill="#EBEBEB"/>
<path d="M93.2907 32.1091H89.503V203.838H93.2907V32.1091Z" fill="#EBEBEB"/>
<path d="M24.086 40.2664L158.715 40.2664V34.9882L24.086 34.9882V40.2664Z" fill="#EBEBEB"/>
<path d="M24.086 46.2061L158.715 46.2061V40.9279L24.086 40.9279V46.2061Z" fill="#EBEBEB"/>
<path d="M24.086 52.1458L158.715 52.1458V46.8676L24.086 46.8676V52.1458Z" fill="#EBEBEB"/>
<path d="M24.086 58.0784L158.715 58.0784V52.8002L24.086 52.8002V58.0784Z" fill="#EBEBEB"/>
<path d="M24.086 64.0251L158.715 64.0251V58.747L24.086 58.747V64.0251Z" fill="#EBEBEB"/>
<path d="M24.086 69.9648L158.715 69.9648V64.6867L24.086 64.6867V69.9648Z" fill="#EBEBEB"/>
<path d="M24.086 75.8975L158.715 75.8975V70.6193L24.086 70.6193V75.8975Z" fill="#EBEBEB"/>
<path d="M24.086 81.8372L158.715 81.8372V76.559L24.086 76.559V81.8372Z" fill="#EBEBEB"/>
<path d="M24.086 87.7769L158.715 87.7769V82.4987L24.086 82.4987V87.7769Z" fill="#EBEBEB"/>
<path d="M36.2856 33.9194H35.3405V136.64H36.2856V33.9194Z" fill="#263238"/>
<path d="M34.1335 141.053H37.4999L36.6565 136.218H34.9769L34.1335 141.053Z" fill="#263238"/>
<path d="M32.8756 33.9194H31.9305V162.55H32.8756V33.9194Z" fill="#263238"/>
<path d="M30.7166 166.106H34.0829L33.2395 161.271H31.56L30.7166 166.106Z" fill="#263238"/>
<path d="M18.1974 37.6272L164.597 37.6272V26.5838L18.1974 26.5838V37.6272Z" fill="#DBDBDB"/>
<path d="M287.566 77.2595C300.467 69.4185 304.569 52.6036 296.728 39.7023C288.887 26.8011 272.072 22.6989 259.171 30.5399C246.27 38.3809 242.168 55.1958 250.009 68.0971C257.85 80.9984 274.664 85.1005 287.566 77.2595Z" fill="#EBEBEB"/>
<path d="M289.773 75.781C301.506 67.4213 304.24 51.1329 295.88 39.3999C287.521 27.667 271.232 24.9325 259.499 33.2922C247.766 41.652 245.032 57.9404 253.392 69.6734C261.751 81.4063 278.04 84.1408 289.773 75.781Z" fill="#DBDBDB"/>
<path d="M288.822 74.4327C299.81 66.5979 302.366 51.3392 294.531 40.3513C286.697 29.3633 271.438 26.8071 260.45 34.6419C249.462 42.4766 246.906 57.7354 254.741 68.7233C262.575 79.7112 277.834 82.2674 288.822 74.4327Z" fill="white"/>
<path opacity="0.5" d="M298.513 49.3469C287.382 56.0863 269.098 67.1443 258.876 73.2076C255.985 70.7708 253.698 67.6976 252.195 64.2289L286.001 32.8945C289.159 34.5592 291.916 36.8943 294.077 39.7362C296.239 42.5782 297.752 45.8584 298.513 49.3469Z" fill="#EBEBEB"/>
<path opacity="0.5" d="M299.043 55.3811C298.959 58.0998 298.413 60.7844 297.429 63.3201L266.953 77.7441C265.625 77.3058 264.338 76.7511 263.107 76.0865C272.311 70.7648 289.134 61.0809 299.043 55.3811Z" fill="#EBEBEB"/>
<path d="M274.863 31.8694H274.39V35.5702H274.863V31.8694Z" fill="#C7C7C7"/>
<path d="M263.493 34.771L263.084 35.0073L264.935 38.2123L265.344 37.9761L263.493 34.771Z" fill="#C7C7C7"/>
<path d="M255.108 42.9886L254.872 43.3979L258.077 45.2484L258.313 44.8391L255.108 42.9886Z" fill="#C7C7C7"/>
<path d="M255.67 54.2905H251.969V54.7631H255.67V54.2905Z" fill="#C7C7C7"/>
<path d="M258.087 63.7815L254.883 65.6331L255.119 66.0423L258.324 64.1907L258.087 63.7815Z" fill="#C7C7C7"/>
<path d="M264.951 70.8405L263.102 74.0461L263.511 74.2823L265.36 71.0766L264.951 70.8405Z" fill="#C7C7C7"/>
<path d="M274.863 73.491H274.39V77.1918H274.863V73.491Z" fill="#C7C7C7"/>
<path d="M284.305 70.8221L283.895 71.0583L285.746 74.2634L286.155 74.0271L284.305 70.8221Z" fill="#C7C7C7"/>
<path d="M291.175 63.8173L290.939 64.2266L294.144 66.0775L294.38 65.6683L291.175 63.8173Z" fill="#C7C7C7"/>
<path d="M297.285 54.2905H293.584V54.7631H297.285V54.2905Z" fill="#C7C7C7"/>
<path d="M294.136 43.0003L290.932 44.8518L291.168 45.261L294.373 43.4095L294.136 43.0003Z" fill="#C7C7C7"/>
<path d="M285.757 34.7977L283.908 38.0037L284.318 38.2398L286.166 35.0338L285.757 34.7977Z" fill="#C7C7C7"/>
<path d="M274.979 33.5414L275.786 56.1807L273.467 56.1516L274.354 33.5342L274.979 33.5414Z" fill="#C7C7C7"/>
<path d="M289.083 46.6351L273.852 56.3553L272.747 54.3196L288.778 46.0825L289.083 46.6351Z" fill="#A6A6A6"/>
<path d="M275.416 54.5306C275.416 54.6876 275.369 54.8412 275.282 54.9716C275.194 55.1021 275.07 55.2037 274.925 55.2634C274.779 55.3232 274.62 55.3385 274.466 55.3073C274.312 55.2761 274.171 55.1999 274.06 55.0884C273.95 54.9768 273.875 54.8349 273.845 54.6807C273.815 54.5265 273.832 54.3669 273.893 54.2222C273.954 54.0775 274.057 53.9543 274.188 53.8681C274.319 53.7819 274.473 53.7366 274.63 53.7381C274.734 53.7381 274.837 53.7586 274.933 53.7985C275.028 53.8384 275.115 53.8969 275.188 53.9706C275.261 54.0443 275.319 54.1317 275.358 54.2279C275.397 54.324 275.417 54.4269 275.416 54.5306Z" fill="#C7C7C7"/>
<path d="M301.319 199.497C298.171 196.422 294.114 192.7 289.308 194.023C284.786 195.273 283.056 200.21 282.242 204.325C281.202 209.625 280.388 214.975 279.545 220.319C278.701 225.663 277.902 231.108 277.124 236.502C276.687 239.546 276.256 242.595 275.83 245.648C275.612 247.165 275.398 248.69 275.19 250.221C274.986 251.675 274.732 253.209 274.652 254.714C274.652 255.194 275.379 255.267 275.488 254.809C276.07 252.264 276.309 249.625 276.68 247.044C277.051 244.463 277.407 241.853 277.814 239.258C278.541 234.103 279.348 228.956 280.119 223.801C280.89 218.647 281.704 213.5 282.525 208.352C283.252 203.99 283.551 198.567 287.418 195.688C289.541 194.11 292.253 194.095 294.652 195.012C297.204 195.986 299.232 197.803 301.195 199.606C301.21 199.623 301.23 199.633 301.252 199.634C301.274 199.635 301.295 199.628 301.312 199.614C301.328 199.599 301.338 199.579 301.339 199.557C301.341 199.535 301.333 199.514 301.319 199.497Z" fill="#00840D"/>
<path d="M297.015 196.349C297.015 196.349 290.588 194.037 287.418 198.727C284.248 203.416 288.036 215.346 317.291 222.071C316.434 212.927 314.055 203.99 310.254 195.63C303.98 181.954 292.805 187.131 297.015 196.349Z" fill="#0FBD21"/>
<path d="M315.612 220.123C315.175 219.305 314.689 218.513 314.158 217.753L312.704 215.499L311.555 213.82C311.555 213.689 311.592 213.543 311.614 213.405C311.614 213.151 311.679 212.896 311.708 212.642C311.781 212.097 311.861 211.551 311.941 210.999C312.021 210.446 312.115 209.915 312.217 209.37C312.286 208.784 312.415 208.207 312.602 207.647C312.639 207.56 312.486 207.516 312.471 207.647C312.41 207.976 312.322 208.299 312.21 208.614L312.013 209.341C311.875 209.894 311.737 210.453 311.614 211.013C311.49 211.573 311.403 212.046 311.315 212.562C311.272 212.816 311.235 213.063 311.199 213.289C310.676 212.562 310.145 211.835 309.6 211.108C308.044 209.058 306.401 207.087 304.7 205.168C304.7 205.168 304.7 205.168 304.7 205.117C304.852 202.042 304.78 198.996 305.427 195.971C305.427 195.891 305.325 195.848 305.303 195.928C304.663 198.77 304.031 201.744 304.212 204.652C303.602 203.968 302.984 203.292 302.359 202.623C300.905 201.097 299.487 199.585 297.996 198.109C297.938 198.051 297.844 198.109 297.902 198.196C300.367 200.85 302.708 203.62 304.983 206.433C303.2 206.404 301.416 206.469 299.64 206.629C297.655 206.775 295.685 207.029 293.714 207.298C293.697 207.298 293.68 207.305 293.668 207.317C293.656 207.33 293.649 207.346 293.649 207.364C293.649 207.381 293.656 207.398 293.668 207.41C293.68 207.422 293.697 207.429 293.714 207.429C295.677 207.151 297.652 206.974 299.632 206.898C301.544 206.818 303.442 206.898 305.347 206.898C306.575 208.432 307.797 209.966 308.982 211.522H308.713C308.262 211.522 307.818 211.522 307.368 211.522C306.481 211.522 305.587 211.602 304.7 211.675C302.883 211.82 301.078 212.09 299.298 212.482C299.281 212.482 299.264 212.489 299.252 212.501C299.239 212.513 299.232 212.53 299.232 212.547C299.232 212.565 299.239 212.581 299.252 212.594C299.264 212.606 299.281 212.613 299.298 212.613C301.094 212.409 302.897 212.242 304.707 212.176C305.565 212.176 306.43 212.176 307.295 212.176H308.64C308.884 212.21 309.133 212.188 309.367 212.111C310.152 213.136 310.945 214.154 311.723 215.179C312.341 216.001 312.958 216.822 313.555 217.658C314.151 218.494 314.725 219.432 315.409 220.225C315.422 220.252 315.446 220.272 315.474 220.282C315.503 220.291 315.534 220.289 315.561 220.275C315.588 220.262 315.609 220.238 315.618 220.21C315.628 220.181 315.626 220.15 315.612 220.123Z" fill="#00840D"/>
<path d="M299.814 202.994C298.778 202.862 297.732 202.814 296.688 202.849C295.641 202.849 294.594 202.849 293.554 202.914C293.537 202.914 293.52 202.921 293.508 202.933C293.496 202.946 293.489 202.962 293.489 202.98C293.489 202.997 293.496 203.014 293.508 203.026C293.52 203.038 293.537 203.045 293.554 203.045C294.609 202.965 295.67 202.951 296.732 202.965C297.793 202.98 298.782 203.074 299.8 203.052L299.814 202.994Z" fill="#00840D"/>
<path d="M308.996 205.357C309.112 204.354 309.243 203.35 309.454 202.369C309.454 202.352 309.447 202.335 309.435 202.323C309.423 202.31 309.406 202.303 309.389 202.303C309.371 202.303 309.355 202.31 309.343 202.323C309.33 202.335 309.323 202.352 309.323 202.369C309.178 203.358 308.982 204.332 308.836 205.314C308.763 205.798 308.698 206.283 308.64 206.768C308.552 207.228 308.51 207.695 308.516 208.164C308.516 208.251 308.669 208.258 308.691 208.164C308.778 207.706 308.829 207.241 308.843 206.775C308.887 206.302 308.938 205.83 308.996 205.357Z" fill="#00840D"/>
<path d="M307.041 194.285C306.786 195.259 306.532 196.24 306.313 197.229C306.226 197.731 306.146 198.24 306.081 198.742C305.991 199.221 305.957 199.709 305.979 200.196C305.979 200.196 306.044 200.196 306.059 200.196C306.173 199.735 306.251 199.266 306.292 198.793C306.355 198.308 306.427 197.823 306.51 197.338C306.692 196.32 306.873 195.31 307.128 194.306C307.215 194.248 307.091 194.205 307.041 194.285Z" fill="#00840D"/>
<path d="M268.974 253.624C268.814 251.777 268.632 249.938 268.443 248.098C268.055 244.458 267.614 240.823 267.12 237.193C266.633 233.558 266.168 229.923 265.586 226.339C265.373 224.664 265.001 223.013 264.474 221.409C264.284 220.721 263.939 220.085 263.465 219.551C262.991 219.016 262.401 218.598 261.74 218.327C258.301 217.135 255.975 220.704 254.586 223.234C254.543 223.307 254.659 223.365 254.702 223.292C255.539 222.1 257.836 218.741 260.446 218.894C262.205 219.003 263.608 220.246 264.452 224.63C266.553 235.535 268.45 257.695 268.668 259.142C268.785 259.912 269.33 259.869 269.33 259.054C269.345 257.237 269.134 255.427 268.974 253.624Z" fill="#00840D"/>
<path d="M255.517 221.868C255.517 221.868 258.527 211.246 251.882 216.553C240.809 225.394 240.417 244.63 240.417 244.63C240.417 244.63 260.097 233.202 262.547 225.663C266.182 214.423 255.517 221.868 255.517 221.868Z" fill="#0FBD21"/>
<path d="M259.239 227.08C257.698 227.393 256.128 227.596 254.572 227.807L252.354 228.12C251.86 228.185 251.351 228.236 250.85 228.294C252.304 226.28 253.794 224.267 255.212 222.209C255.27 222.129 255.146 222.042 255.081 222.107C253.92 223.314 252.823 224.581 251.795 225.902L250.922 223.438C250.588 222.485 250.195 221.54 249.984 220.53C249.984 220.45 249.839 220.486 249.861 220.573C250.13 221.548 250.319 222.536 250.588 223.481C250.857 224.427 251.126 225.357 251.46 226.273C250.733 227.211 250.043 228.171 249.374 229.138C249.032 228.178 248.647 227.247 248.32 226.273C248.314 226.256 248.301 226.241 248.285 226.233C248.269 226.225 248.25 226.224 248.232 226.23C248.215 226.235 248.201 226.248 248.192 226.264C248.184 226.28 248.183 226.299 248.189 226.317C248.545 227.393 248.734 228.498 249.068 229.596C248.61 230.257 248.16 230.919 247.731 231.58C246.938 232.809 246.189 234.059 245.455 235.325C245.398 235.347 245.35 235.387 245.318 235.44C245.286 235.493 245.273 235.554 245.281 235.615C244.037 237.796 242.852 239.977 241.689 242.158C241.68 242.174 241.678 242.192 241.683 242.209C241.688 242.226 241.699 242.241 241.715 242.249C241.73 242.258 241.748 242.26 241.765 242.255C241.782 242.251 241.797 242.239 241.805 242.224C242.976 240.043 244.27 237.935 245.622 235.855C245.833 235.793 246.05 235.752 246.269 235.732L246.945 235.586C247.454 235.477 247.956 235.346 248.465 235.215C249.461 234.968 250.45 234.736 251.467 234.561C251.547 234.561 251.511 234.416 251.424 234.43C250.232 234.663 249.039 234.794 247.832 234.932C247.265 234.997 246.698 235.07 246.138 235.165H246.051C246.778 234.089 247.505 233.02 248.232 231.966C248.959 230.912 249.686 229.901 250.413 228.883C251.097 228.781 251.773 228.607 252.449 228.476L254.739 228.033C256.259 227.727 257.778 227.386 259.305 227.131C259.363 227.196 259.327 227.066 259.239 227.08Z" fill="#00840D"/>
<path d="M247.425 228.127L247.163 227.284C246.977 226.7 246.827 226.105 246.713 225.503C246.713 225.415 246.567 225.459 246.582 225.539C246.713 226.142 246.851 226.739 246.989 227.335C247.113 227.937 247.286 228.528 247.505 229.102C247.563 229.24 247.774 229.182 247.73 229.036C247.629 228.731 247.512 228.433 247.425 228.127Z" fill="#00840D"/>
<path d="M261.239 224.601C260.345 224.732 259.436 224.797 258.534 224.877C257.633 224.957 256.731 225.081 255.83 225.219C255.779 225.219 255.779 225.299 255.83 225.299C256.738 225.234 257.633 225.161 258.534 225.045C259.436 224.928 260.338 224.79 261.246 224.732C261.341 224.746 261.334 224.601 261.239 224.601Z" fill="#00840D"/>
<path d="M283.456 240.174C283.107 232.351 282.613 224.543 281.828 216.749C281.435 212.867 280.999 208.992 280.454 205.117C279.964 201.321 279.213 197.563 278.207 193.87C277.407 191.057 276.346 188.229 274.463 185.946C273.588 184.798 272.434 183.892 271.111 183.315C269.788 182.737 268.339 182.507 266.902 182.645C263.478 183.067 260.722 185.226 258.338 187.567C255.662 190.199 253.249 193.063 250.74 195.877C250.115 196.604 249.49 197.331 248.872 198.022C248.821 198.087 248.916 198.181 248.966 198.116C251.395 195.332 253.91 192.627 256.542 190.046C258.977 187.654 261.478 185.044 264.852 184.056C266.417 183.559 268.093 183.521 269.679 183.946C270.941 184.345 272.079 185.064 272.98 186.033C274.877 188.011 275.939 190.679 276.702 193.267C278.803 200.457 279.559 207.996 280.337 215.419C281.13 222.965 281.668 230.526 282.046 238.102C282.424 245.677 282.722 253.369 283.456 260.93C283.551 261.868 283.667 262.806 283.791 263.736C283.87 264.369 284.845 264.369 284.794 263.736C284.169 255.863 283.812 248.033 283.456 240.174Z" fill="#00840D"/>
<path d="M257.909 188.425C257.909 188.425 262.38 180.159 257.102 177.52C251.824 174.88 234.157 194.583 228.995 223.416C228.995 223.416 257.523 210.795 267.214 198.218C276.906 185.64 265.92 182.863 257.909 188.425Z" fill="#0FBD21"/>
<path d="M262.104 195.15C258.897 195.15 255.699 194.91 252.492 194.932C253.096 194.241 253.692 193.55 254.303 192.867C255.2 191.954 256.035 190.983 256.804 189.959C256.854 189.893 256.753 189.799 256.687 189.85C255.821 190.601 255.012 191.415 254.266 192.285C253.457 193.134 252.657 193.991 251.867 194.859C250.638 196.182 249.439 197.527 248.232 198.879V196.807C248.232 195.717 248.232 194.626 248.268 193.543C248.268 191.362 248.268 189.123 248.436 186.927C248.436 186.84 248.312 186.847 248.305 186.927C248.152 189.108 247.919 191.34 247.81 193.558C247.76 194.641 247.73 195.739 247.723 196.822C247.723 197.382 247.723 197.942 247.723 198.501C247.723 198.807 247.723 199.134 247.723 199.446L247.156 200.079C244.597 202.987 242.162 206.026 239.799 209.101C239.799 208.934 239.799 208.76 239.755 208.592C239.755 208.251 239.682 207.916 239.639 207.574C239.559 206.847 239.457 206.12 239.348 205.393C239.239 204.666 239.137 204.019 239.021 203.336C238.904 202.653 238.701 201.787 238.643 201.002C238.643 200.985 238.636 200.968 238.624 200.956C238.611 200.944 238.595 200.937 238.577 200.937C238.56 200.937 238.543 200.944 238.531 200.956C238.519 200.968 238.512 200.985 238.512 201.002C238.649 201.779 238.738 202.563 238.781 203.351L238.977 205.466C239.043 206.193 239.108 206.884 239.181 207.589C239.181 207.923 239.246 208.265 239.283 208.607C239.283 208.774 239.319 208.941 239.341 209.116C239.356 209.258 239.404 209.394 239.479 209.516L238.257 211.108C236.643 213.252 235.051 215.419 233.466 217.578C233.415 217.644 233.51 217.738 233.561 217.665C235.066 215.71 236.614 213.783 238.185 211.849C239.355 211.9 240.555 211.813 241.725 211.798C242.896 211.784 244.197 211.798 245.44 211.762C245.52 211.762 245.52 211.631 245.44 211.631C244.204 211.631 242.968 211.675 241.733 211.675C240.497 211.675 239.45 211.624 238.323 211.675C239.704 209.993 241.095 208.323 242.496 206.666L244.03 204.855C244.512 204.919 244.999 204.933 245.484 204.899H247.171L250.333 204.855C252.514 204.819 254.695 204.746 256.876 204.746C256.891 204.742 256.904 204.732 256.912 204.72C256.921 204.708 256.926 204.693 256.926 204.677C256.926 204.662 256.921 204.647 256.912 204.635C256.904 204.622 256.891 204.613 256.876 204.608C254.695 204.608 252.514 204.492 250.333 204.434C249.279 204.434 248.225 204.376 247.171 204.361H245.484C245.164 204.361 244.83 204.361 244.51 204.361L248.101 200.101C248.13 200.084 248.153 200.059 248.167 200.028C249.337 198.647 250.508 197.265 251.685 195.899L252.18 195.339C255.502 195.441 258.817 195.222 262.147 195.288C262.191 195.288 262.191 195.15 262.104 195.15Z" fill="#00840D"/>
<path d="M260.461 200.82H259.69C259.674 200.82 259.66 200.826 259.649 200.837C259.638 200.848 259.632 200.863 259.632 200.878C259.632 200.894 259.638 200.909 259.649 200.92C259.66 200.931 259.674 200.937 259.69 200.937H260.468C260.555 200.951 260.548 200.82 260.461 200.82Z" fill="#00840D"/>
<path d="M258.738 200.828C257.713 200.828 256.68 200.791 255.655 200.762L254.114 200.719C253.631 200.655 253.142 200.655 252.66 200.719C252.609 200.719 252.616 200.799 252.66 200.813C253.138 200.91 253.627 200.944 254.114 200.915H255.655C256.68 200.915 257.706 200.915 258.731 200.915C258.739 200.926 258.75 200.933 258.762 200.938C258.775 200.942 258.788 200.942 258.801 200.938C258.814 200.935 258.825 200.927 258.834 200.917C258.842 200.907 258.847 200.894 258.848 200.881C258.849 200.868 258.846 200.854 258.84 200.843C258.833 200.831 258.823 200.822 258.811 200.816C258.799 200.811 258.786 200.809 258.773 200.811C258.76 200.813 258.748 200.819 258.738 200.828Z" fill="#00840D"/>
<path d="M249.767 210.461C247.683 210.113 245.576 209.921 243.463 209.886C243.427 209.886 243.463 209.93 243.463 209.937C245.557 210.133 247.658 210.25 249.738 210.584C249.825 210.599 249.854 210.468 249.767 210.461Z" fill="#00840D"/>
<path d="M241.195 201.279L241.129 200.726C241.071 200.319 241.006 199.905 240.94 199.49C240.824 198.712 240.686 197.927 240.533 197.149C240.533 197.076 240.395 197.098 240.402 197.149C240.504 197.958 240.591 198.766 240.664 199.57C240.7 199.97 240.73 200.363 240.766 200.763C240.756 201.145 240.81 201.525 240.926 201.89C240.941 201.915 240.964 201.935 240.99 201.947C241.017 201.96 241.047 201.965 241.076 201.961C241.105 201.957 241.132 201.945 241.155 201.926C241.177 201.907 241.194 201.881 241.202 201.853C241.237 201.663 241.234 201.468 241.195 201.279Z" fill="#00840D"/>
<path d="M283.18 177.81C282.155 175.913 280.853 173.397 278.309 173.557C276.2 173.688 275.255 175.84 274.805 177.614C273.416 183.103 273.314 188.897 273.045 194.524C272.478 206.411 271.962 218.32 271.882 230.221C271.882 233.522 271.882 236.822 271.882 240.123C271.918 243.489 271.882 246.877 272.122 250.236C272.122 250.301 272.148 250.364 272.194 250.41C272.241 250.457 272.303 250.483 272.369 250.483C272.435 250.483 272.497 250.457 272.544 250.41C272.59 250.364 272.616 250.301 272.616 250.236C272.616 247.328 272.529 244.478 272.522 241.599C272.514 238.72 272.522 235.979 272.58 233.173C272.667 227.478 272.817 221.788 273.031 216.102C273.241 210.446 273.489 204.797 273.758 199.148C273.881 196.32 273.998 193.499 274.128 190.671C274.259 187.843 274.368 185.197 274.681 182.478C274.855 180.951 275.081 179.424 275.408 177.927C275.567 176.81 276.021 175.756 276.724 174.873C277.214 174.401 277.854 174.115 278.533 174.066C279.211 174.017 279.886 174.207 280.439 174.604C281.602 175.441 282.515 176.58 283.078 177.898C283.107 177.956 283.216 177.89 283.18 177.81Z" fill="#00840D"/>
<path d="M282.489 176.902C282.489 176.902 280.388 169.508 285.026 173.201C292.733 179.366 293.023 192.765 293.023 192.765C293.023 192.765 279.312 184.768 277.611 179.548C275.052 171.725 282.489 176.902 282.489 176.902Z" fill="#0FBD21"/>
<path d="M290.123 187.269C289.999 187.065 289.868 186.869 289.737 186.665C289.752 186.455 289.752 186.243 289.737 186.033C289.737 185.713 289.737 185.393 289.737 185.073C289.737 184.448 289.774 183.83 289.81 183.205C289.805 183.19 289.796 183.178 289.784 183.169C289.771 183.16 289.756 183.155 289.741 183.155C289.726 183.155 289.711 183.16 289.698 183.169C289.686 183.178 289.677 183.19 289.672 183.205C289.672 183.815 289.621 184.433 289.599 185.044C289.599 185.349 289.599 185.655 289.599 185.967C289.599 186.084 289.599 186.222 289.599 186.36C289.061 185.524 288.509 184.695 287.942 183.888C287.774 183.648 287.6 183.416 287.433 183.161C287.349 182.359 287.334 181.552 287.389 180.747C287.389 179.89 287.389 179.024 287.44 178.167C287.44 178.087 287.309 178.087 287.309 178.167C287.309 179.061 287.236 179.955 287.193 180.849C287.143 181.485 287.126 182.124 287.142 182.761C285.819 180.958 284.416 179.221 282.991 177.498C282.947 177.44 282.845 177.498 282.889 177.578C283.768 178.697 284.612 179.839 285.441 180.995C283.827 180.617 282.191 180.398 280.548 180.166C280.468 180.166 280.431 180.282 280.548 180.289C282.278 180.558 283.987 181.016 285.695 181.365H285.731C286.386 182.289 287.04 183.219 287.68 184.15L288.458 185.291H288.385L287.854 185.219C287.476 185.175 287.091 185.146 286.713 185.117C285.92 185.051 285.128 185.008 284.336 184.964C284.256 184.964 284.256 185.095 284.336 185.102C285.113 185.102 285.891 185.175 286.662 185.262L287.891 185.408L288.429 185.473H288.581L289.897 187.414C290.675 188.556 291.351 189.784 292.195 190.889C292.203 190.903 292.217 190.912 292.233 190.916C292.248 190.919 292.265 190.916 292.278 190.908C292.292 190.899 292.301 190.885 292.305 190.869C292.308 190.854 292.305 190.837 292.296 190.824C291.642 189.597 290.916 188.41 290.123 187.269Z" fill="#00840D"/>
<path d="M286.684 178.908C286.684 178.625 286.684 178.334 286.684 178.05C286.661 177.444 286.685 176.836 286.757 176.233C286.757 176.138 286.626 176.124 286.626 176.233C286.626 176.836 286.561 177.432 286.531 178.029C286.531 178.327 286.531 178.632 286.531 178.93V179.345C286.506 179.486 286.506 179.632 286.531 179.774C286.531 179.789 286.538 179.804 286.548 179.815C286.559 179.826 286.574 179.832 286.59 179.832C286.605 179.832 286.62 179.826 286.631 179.815C286.642 179.804 286.648 179.789 286.648 179.774C286.67 179.641 286.67 179.506 286.648 179.374L286.684 178.908Z" fill="#00840D"/>
<path d="M285.019 181.976C284.51 181.889 283.987 181.86 283.471 181.816C282.955 181.773 282.344 181.722 281.777 181.649C281.759 181.649 281.743 181.656 281.73 181.668C281.718 181.68 281.711 181.697 281.711 181.714C281.711 181.732 281.718 181.748 281.73 181.761C281.743 181.773 281.759 181.78 281.777 181.78C282.86 181.845 283.958 182.042 285.019 182.078C285.063 182.085 285.078 181.983 285.019 181.976Z" fill="#00840D"/>
<path d="M283.492 217.331C280.584 215.15 278.025 212.06 274.143 211.907C270.944 211.784 268.697 214.19 267.418 216.873C266.772 218.3 266.247 219.778 265.848 221.293C265.276 223.324 264.733 225.36 264.219 227.4C263.206 231.418 262.348 235.472 261.645 239.563C261.26 241.839 260.918 244.121 260.606 246.412C260.238 248.736 260.015 251.082 259.937 253.435C259.926 253.531 259.954 253.628 260.015 253.703C260.076 253.779 260.164 253.827 260.26 253.838C260.357 253.849 260.454 253.821 260.529 253.76C260.605 253.699 260.653 253.611 260.664 253.515C261.057 251.595 261.216 249.618 261.5 247.698C261.784 245.779 262.082 243.802 262.409 241.882C263.07 238 263.863 234.132 264.706 230.294C265.535 226.659 266.349 222.98 267.52 219.447C268.356 216.917 269.701 213.965 272.434 213.049C276.593 211.667 280.373 215.186 283.42 217.476C283.47 217.447 283.565 217.331 283.492 217.331Z" fill="#00840D"/>
<path d="M280.512 215.23C280.512 215.23 277.858 207.64 281.697 206.149C287.462 203.917 302.54 220.901 299.589 246.92C299.589 246.92 287.956 240.508 279.334 233.289C270.711 226.07 268.509 216.604 272.318 214.197C276.128 211.791 280.512 215.23 280.512 215.23Z" fill="#0FBD21"/>
<path d="M297.844 241.323C297.442 240.414 296.973 239.536 296.441 238.698C295.953 237.811 295.452 236.924 294.936 236.044C293.94 234.329 292.944 232.613 291.918 230.955L291.41 230.134C291.41 230.032 291.453 229.93 291.475 229.828L291.649 229.101C291.773 228.542 291.875 227.967 291.977 227.4C292.187 226.288 292.384 225.154 292.704 224.063C292.704 223.983 292.595 223.954 292.573 224.063C292.333 225.175 291.984 226.244 291.657 227.357C291.497 227.895 291.322 228.433 291.177 228.971C291.133 229.16 291.082 229.341 291.032 229.53C289.796 227.502 288.538 225.481 287.178 223.525C287.268 223.256 287.312 222.973 287.309 222.689L287.44 221.555C287.542 220.697 287.644 219.839 287.767 218.989C287.988 217.312 288.294 215.647 288.683 214.001C288.683 213.921 288.574 213.899 288.552 214.001C288.138 215.637 287.687 217.28 287.375 218.938C287.222 219.752 287.077 220.573 286.968 221.395C286.917 221.802 286.873 222.217 286.829 222.631C286.829 222.747 286.793 222.878 286.778 223.002C286.364 222.413 285.942 221.824 285.506 221.25C284.176 219.498 282.794 217.789 281.406 216.088C281.355 216.022 281.246 216.088 281.297 216.161C283.678 219.208 285.863 222.404 287.84 225.728C288.225 226.339 288.567 226.957 288.974 227.567L288.603 227.524C288.116 227.458 287.622 227.429 287.149 227.386C286.18 227.294 285.198 227.206 284.205 227.124C282.242 226.971 280.272 226.848 278.316 226.644C278.229 226.644 278.207 226.76 278.316 226.768C280.301 227 282.271 227.313 284.248 227.596L287.157 227.989C287.893 228.141 288.643 228.219 289.396 228.222C290.171 229.472 290.944 230.725 291.715 231.98C291.541 231.966 291.366 231.966 291.191 231.98H288.385C287.12 231.98 285.862 231.98 284.597 231.98C284.51 231.98 284.525 232.111 284.597 232.111C285.877 232.111 287.149 232.191 288.429 232.257C289.039 232.257 289.643 232.322 290.254 232.366C290.552 232.366 290.857 232.417 291.162 232.431C291.426 232.486 291.698 232.486 291.962 232.431L293.925 235.623C294.526 236.592 295.139 237.561 295.764 238.531C296.345 239.569 297.007 240.561 297.742 241.497C297.771 241.468 297.873 241.432 297.844 241.323Z" fill="#00840D"/>
<path d="M292.297 220.312C292.177 221.149 292.002 221.977 291.773 222.791C291.555 223.635 291.315 224.471 291.046 225.292C291.039 225.304 291.034 225.316 291.032 225.33C291.031 225.343 291.032 225.357 291.036 225.37C291.041 225.382 291.048 225.394 291.058 225.403C291.068 225.413 291.079 225.42 291.092 225.424C291.105 225.428 291.119 225.429 291.132 225.427C291.145 225.425 291.158 225.42 291.169 225.412C291.18 225.404 291.189 225.394 291.196 225.382C291.202 225.37 291.206 225.357 291.206 225.343C291.46 224.522 291.693 223.693 291.933 222.864C292.173 222.035 292.26 221.17 292.471 220.341C292.442 220.239 292.304 220.239 292.297 220.312Z" fill="#00840D"/>
<path d="M283.733 225.401C283.558 225.246 283.333 225.161 283.1 225.161L282.002 225.008C281.319 224.914 280.635 224.841 279.952 224.761C278.534 224.594 277.109 224.456 275.692 224.281C275.674 224.281 275.658 224.288 275.645 224.3C275.633 224.313 275.626 224.329 275.626 224.347C275.626 224.364 275.633 224.381 275.645 224.393C275.658 224.405 275.674 224.412 275.692 224.412C277.029 224.572 278.36 224.776 279.698 224.95C280.352 225.037 281.006 225.132 281.668 225.205L282.613 225.314C282.981 225.315 283.347 225.376 283.696 225.495C283.706 225.494 283.716 225.49 283.724 225.483C283.732 225.477 283.738 225.468 283.742 225.459C283.746 225.449 283.747 225.439 283.745 225.429C283.743 225.418 283.739 225.409 283.733 225.401Z" fill="#00840D"/>
<path d="M292.275 236.837C291.606 236.786 290.93 236.764 290.254 236.742H289.236H288.749C288.537 236.756 288.325 236.744 288.116 236.706C288.021 236.706 288.014 236.859 288.116 236.837C288.314 236.815 288.514 236.815 288.712 236.837H289.243L290.261 236.902C290.93 236.939 291.606 236.982 292.275 236.982C292.348 236.961 292.355 236.844 292.275 236.837Z" fill="#00840D"/>
<path d="M296.382 233.929L296.601 232.787L297.015 230.533C297.015 230.454 296.899 230.432 296.884 230.533C296.717 231.261 296.55 231.988 296.39 232.715C296.303 233.078 296.223 233.442 296.15 233.805L296.041 234.314C295.986 234.488 295.966 234.671 295.983 234.852C295.983 234.918 296.084 234.961 296.128 234.896C296.27 234.592 296.357 234.264 296.382 233.929Z" fill="#00840D"/>
<path d="M256.935 250.483L257.749 259.709L260.504 290.854H284.896L288.334 259.709L289.352 250.483H256.935Z" fill="#876445"/>
<path d="M256.935 250.483L257.749 259.709H288.334L289.352 250.483H256.935Z" fill="#A37339"/>
<path d="M254.521 255.456H291.773V247.975H254.521V255.456Z" fill="#876445"/>
<path d="M0 290.76L39.8623 290.585L79.7318 290.52L159.456 290.396L239.181 290.52L279.051 290.578L318.913 290.76L279.051 290.934L239.181 290.999L159.456 291.123L79.7318 290.999L39.8623 290.934L0 290.76Z" fill="#263238"/>
<path d="M123.942 232.598V232.7C123.942 232.7 123.942 232.744 123.942 232.773C123.942 232.802 123.942 232.889 123.978 232.969V233.1C124.001 233.193 124.018 233.288 124.029 233.384C124.029 233.449 124.029 233.514 124.066 233.587C124.102 233.66 124.116 233.893 124.153 234.067C124.189 234.241 124.262 234.656 124.32 235.005L124.647 236.779C124.683 236.968 124.72 237.171 124.756 237.382C124.793 237.593 124.858 237.949 124.916 238.247C124.974 238.545 125.032 238.916 125.098 239.272C125.142 239.52 125.192 239.774 125.236 240.036C125.374 240.814 125.52 241.643 125.687 242.529C125.69 242.551 125.69 242.573 125.687 242.595C125.861 243.584 126.05 244.645 126.254 245.757C126.305 246.048 126.363 246.339 126.421 246.63C126.479 246.921 126.537 247.241 126.588 247.546C126.588 247.735 126.654 247.931 126.697 248.127C126.974 249.674 127.272 251.312 127.592 253.042C127.701 253.624 127.802 254.213 127.911 254.809C128.122 255.972 128.34 257.164 128.566 258.393C128.624 258.676 128.675 258.96 128.718 259.251C129.043 261.03 129.38 262.881 129.729 264.805C129.773 265.002 129.802 265.198 129.838 265.394C130.005 266.296 130.172 267.204 130.332 268.135C130.354 268.206 130.369 268.279 130.376 268.353L130.616 269.676C130.936 271.45 131.265 273.265 131.605 275.122C131.692 275.58 131.779 276.045 131.859 276.517C132.026 277.455 132.201 278.4 132.375 279.353C132.593 280.538 132.812 281.73 133.03 282.944C133.248 284.158 133.466 285.373 133.691 286.579C133.808 287.197 133.917 287.815 134.033 288.433C134.164 289.16 134.302 289.887 134.433 290.665H197.261C189.511 258.466 182.976 232.504 182.976 232.504L123.942 232.598Z" fill="#455A64"/>
<path d="M133.437 239.868C136.583 256.832 139.762 273.796 142.976 290.76H143.848C140.511 273.755 137.072 256.779 133.67 239.796C133.619 239.636 133.415 239.701 133.437 239.868Z" fill="#37474F"/>
<path d="M123.949 232.598C123.949 232.598 123.949 232.635 123.949 232.7C123.949 232.766 123.949 232.744 123.949 232.773C123.949 232.802 123.949 232.889 123.986 232.969V233.1C124.009 233.193 124.026 233.288 124.036 233.384C124.036 233.449 124.036 233.514 124.073 233.587C124.109 233.66 124.131 233.892 124.16 234.067C124.189 234.241 124.269 234.656 124.327 235.005C124.429 235.521 124.531 236.11 124.654 236.779C124.691 236.968 124.727 237.171 124.763 237.382C124.8 237.593 124.865 237.949 124.923 238.247C124.982 238.545 125.04 238.916 125.105 239.272C125.149 239.52 125.2 239.774 125.243 240.036C125.389 240.814 125.534 241.642 125.694 242.529C125.697 242.551 125.697 242.573 125.694 242.595C125.876 243.584 126.065 244.63 126.268 245.743C126.327 246.034 126.377 246.332 126.428 246.63C126.479 246.928 126.545 247.24 126.596 247.546C126.639 247.735 126.668 247.931 126.705 248.127C126.988 249.669 127.286 251.312 127.599 253.042C127.708 253.624 127.81 254.213 127.919 254.809C128.137 255.972 128.355 257.164 128.573 258.393C128.631 258.676 128.682 258.96 128.726 259.251C129.06 261.039 129.397 262.891 129.736 264.805C129.78 265.001 129.809 265.198 129.845 265.394C130.013 266.296 130.18 267.204 130.34 268.135C130.361 268.206 130.376 268.279 130.383 268.353L130.623 269.676C130.948 271.45 131.278 273.265 131.612 275.122C131.699 275.58 131.786 276.045 131.866 276.517C132.041 277.455 132.208 278.4 132.383 279.353C132.601 280.538 132.819 281.73 133.037 282.944C133.255 284.158 133.48 285.372 133.698 286.579C133.815 287.197 133.924 287.815 134.04 288.433C134.171 289.16 134.309 289.887 134.447 290.665H166L168.523 264.842L168.61 263.926L168.712 262.937L169.206 257.884L169.635 253.522L171.663 232.598H123.949Z" fill="#263238"/>
<path d="M88.2458 290.76H156.011C156.127 284.522 156.251 278.488 156.404 272.795C156.404 272.657 156.404 272.519 156.404 272.381C156.404 272.381 164.313 267.699 168.574 264.027C169.298 263.432 169.965 262.77 170.566 262.05C173.292 258.575 176.026 245.212 181.682 232.642H98.8021C85.3377 258.771 86.2828 279.767 88.2458 290.76Z" fill="#455A64"/>
<path d="M172.543 261.126C168.508 262.777 164.88 265.314 161.304 267.764C157.588 270.301 154.179 273.239 150.602 275.965C150.464 276.074 150.602 276.299 150.747 276.197C154.513 273.791 158.461 271.675 162.19 269.196C165.92 266.717 169.577 264.449 172.725 261.417C172.849 261.301 172.71 261.054 172.543 261.126Z" fill="#263238"/>
<path d="M173.052 237.811C172.572 240.392 171.94 242.951 171.387 245.517C170.864 247.924 170.478 250.374 169.846 252.788C169.327 255.091 168.156 257.195 166.473 258.851C165.528 259.731 164.488 260.509 163.477 261.308C162.939 261.744 162.35 262.159 161.783 262.602C161.856 262.261 161.922 261.875 161.98 261.563C162.154 260.581 162.314 259.607 162.481 258.655C162.845 256.474 163.208 254.293 163.528 252.112C164.183 247.829 164.786 243.504 165.709 239.265C165.719 239.229 165.714 239.191 165.696 239.159C165.677 239.127 165.647 239.104 165.611 239.094C165.575 239.085 165.537 239.09 165.505 239.108C165.473 239.126 165.45 239.157 165.44 239.192C164.372 243.395 163.194 247.553 162.27 251.792C161.812 253.864 160.184 264.151 160.089 264.878C159.995 265.605 159.951 266.383 159.929 267.132C159.831 267.897 159.831 268.671 159.929 269.436C159.945 269.47 159.97 269.499 160.002 269.519C160.033 269.539 160.07 269.55 160.108 269.55C160.145 269.55 160.182 269.539 160.213 269.519C160.245 269.499 160.27 269.47 160.286 269.436C160.595 268.725 160.815 267.977 160.94 267.212C161.129 266.48 161.289 265.738 161.42 264.987C161.471 264.725 161.507 264.449 161.543 264.173C162.554 263.555 163.499 262.719 164.452 262.064C165.404 261.41 166.502 260.61 167.469 259.796C169.246 258.289 170.53 256.283 171.155 254.038C171.775 251.621 172.179 249.154 172.361 246.666C172.689 243.758 172.921 240.85 173.328 237.942C173.343 237.688 173.081 237.637 173.052 237.811Z" fill="#263238"/>
<path d="M104.095 255.783C105.171 255.223 109.366 256.219 116.992 254.918C118.485 254.725 119.902 254.149 121.107 253.246C123.099 251.624 124.604 249.015 125.803 246.783C127.243 244.272 128.348 241.583 129.089 238.785C129.126 238.611 129.373 238.698 129.344 238.858C129.06 240.436 128.9 242.013 128.486 243.576C128.073 245.043 127.546 246.475 126.908 247.859C125.752 250.447 124.408 253.224 122.088 254.976C119.653 256.808 116.272 257.157 113.306 257.361C111.597 257.477 104.902 257.295 104.007 256.343C103.973 256.302 103.948 256.254 103.934 256.202C103.92 256.15 103.917 256.096 103.925 256.043C103.933 255.99 103.953 255.94 103.982 255.895C104.011 255.85 104.05 255.812 104.095 255.783Z" fill="#263238"/>
<path d="M156.738 134.146C173.27 143.321 234.427 166.789 248.153 158.443C258.382 152.219 256.92 138.864 248.218 130.249C240.65 122.753 183.943 120.645 168.072 120.209C152.986 119.765 140.554 125.131 156.738 134.146Z" fill="#FFBE9D"/>
<path d="M197.4 154.844L222.046 121.031C222.046 121.031 179.399 116.879 161.391 118.435C142.619 120.056 138.773 127.399 161.434 137.846C183.754 148.134 197.4 154.844 197.4 154.844Z" fill="#876445"/>
<path d="M193.241 148.323C193.736 147.45 194.354 146.643 194.921 145.822C195.488 145 196.091 144.135 196.673 143.285C197.858 141.569 199.072 139.875 200.308 138.195C202.751 134.822 205.179 131.441 207.68 128.112C208.363 127.196 209.054 126.28 209.766 125.385C210.479 124.491 211.329 123.546 212.071 122.608C212.115 122.543 212.195 122.608 212.158 122.681C211.577 123.532 211.068 124.433 210.493 125.291C209.919 126.149 209.301 127.043 208.69 127.901C207.484 129.602 206.272 131.298 205.055 132.99C202.627 136.291 200.213 139.606 197.712 142.856L195.611 145.575C194.884 146.52 194.194 147.53 193.379 148.41C193.292 148.425 193.205 148.381 193.241 148.323Z" fill="#263238"/>
<path d="M176.76 123.742C176.3 124.718 175.98 125.753 175.808 126.817C176.508 125.996 177.085 125.078 177.523 124.091C177.984 123.116 178.304 122.081 178.476 121.016C177.778 121.839 177.201 122.757 176.76 123.742ZM186.044 139.795C185.07 139.331 184.034 139.01 182.969 138.842C184.642 140.221 186.647 141.138 188.785 141.503C187.959 140.804 187.035 140.229 186.044 139.795ZM160.46 128.279C159.486 127.815 158.451 127.494 157.385 127.326C159.059 128.705 161.064 129.622 163.201 129.987C162.373 129.291 161.45 128.716 160.46 128.279ZM197.654 126.578C197.293 125.561 196.788 124.602 196.157 123.728C196.353 125.88 197.105 127.944 198.338 129.718C198.264 128.644 198.034 127.586 197.654 126.578ZM205.128 138.937C204.113 139.302 203.154 139.806 202.278 140.434C204.43 140.238 206.494 139.486 208.269 138.253C207.195 138.33 206.137 138.56 205.128 138.937Z" fill="white"/>
<path d="M161.434 137.839C183.754 148.126 197.4 154.844 197.4 154.844L205.259 144.026L146.182 123.815C144.488 127.246 148.922 132.074 161.434 137.839Z" fill="#69492D"/>
<path d="M213.547 59.6267C208.967 53.2508 197.298 44.3594 185.644 37.4891C179.988 34.1376 162.736 26.2494 159.835 30.3862C156.934 34.5229 161.769 37.2855 161.769 37.2855C161.769 37.2855 153.982 35.0391 151.438 39.4666C148.893 43.8941 156.549 47.9363 156.549 47.9363C156.549 47.9363 148.377 46.2133 146.16 50.8444C143.942 55.4755 152.332 58.2163 152.332 58.2163C152.332 58.2163 144.938 56.297 144.706 60.8554C144.429 66.3516 158.461 68.3509 164.524 72.3713C165.905 73.2801 191.133 92.8441 191.133 92.8441L213.547 59.6267Z" fill="#FFBE9D"/>
<path d="M152.434 58.3327C162.75 59.8376 166.974 62.2731 174.804 68.9398C174.957 69.0707 175.182 68.8744 175.037 68.7217C167.992 61.5025 163.099 57.6711 152.499 57.8165C151.961 57.8383 151.947 58.2672 152.434 58.3327Z" fill="#263238"/>
<path d="M156.178 47.7545C166.756 50.2481 171.387 52.8436 180.075 59.234C180.191 59.3286 180.359 59.125 180.242 59.0232C172.245 52.0511 167.28 48.3433 156.382 47.2456C155.894 47.2092 155.691 47.6454 156.178 47.7545Z" fill="#263238"/>
<path d="M162.634 37.5326C172.696 40.6879 177.901 43.3487 185.535 50.6189C185.572 50.651 185.619 50.6682 185.668 50.6672C185.717 50.6662 185.763 50.647 185.799 50.6134C185.834 50.5797 185.856 50.5341 185.86 50.4854C185.863 50.4367 185.848 50.3884 185.818 50.3499C178.759 42.171 172.289 38.834 162.757 37.2636C162.11 37.1328 161.994 37.3363 162.634 37.5326Z" fill="#263238"/>
<path d="M195.117 99.1255C195.117 99.1255 182.358 96.3119 177.029 93.8473C171.7 91.3827 155.219 74.8577 158.585 71.0917C162.947 66.2352 174.325 73.898 179.414 78.3619C179.414 78.3619 189.454 67.1149 198.818 70.8445C208.182 74.5741 195.117 99.1255 195.117 99.1255Z" fill="#FFBE9D"/>
<path d="M160.22 70.1539C167.381 68.5836 173.677 74.8941 178.941 78.8781C179.015 78.9415 179.104 78.9858 179.199 79.0071C179.294 79.0283 179.393 79.0259 179.487 79.0001C179.581 78.9743 179.667 78.9258 179.738 78.8589C179.809 78.792 179.862 78.7087 179.893 78.6164C184.415 74.1889 192.093 69.2524 198.658 70.4956C198.694 70.4997 198.73 70.4907 198.76 70.4703C198.79 70.4499 198.812 70.4194 198.822 70.3844C198.832 70.3493 198.828 70.312 198.813 70.2791C198.797 70.2461 198.771 70.2198 198.738 70.2048C191.875 67.9075 183.943 72.146 179.297 77.315C173.968 73.1492 167.374 67.0932 160.199 70.0885C160.192 70.0931 160.188 70.0995 160.186 70.1067C160.183 70.114 160.183 70.1218 160.186 70.1291C160.188 70.1363 160.193 70.1426 160.199 70.1471C160.205 70.1515 160.213 70.1539 160.22 70.1539Z" fill="#263238"/>
<path d="M255.307 146.578C254.849 160.704 238.098 159.73 230.864 153.012C213.874 137.258 188.828 105.109 182.038 85.2904C179.857 78.9145 205.506 50.8953 210.493 56.1007C219.356 65.3338 256.237 117.912 255.307 146.578Z" fill="#FFBE9D"/>
<path d="M212.282 132.997C213.532 134.269 214.732 135.571 215.917 136.887C217.102 138.203 218.294 139.518 219.472 140.842L222.969 144.847C223.543 145.516 224.132 146.178 224.728 146.839C225.324 147.501 225.913 148.155 226.51 148.817C225.114 147.711 223.795 146.511 222.562 145.225C221.304 143.968 220.104 142.652 218.927 141.321C217.749 139.991 216.6 138.639 215.495 137.243C214.39 135.847 213.307 134.451 212.282 132.997Z" fill="#263238"/>
<path d="M219.407 141.3C220.003 142.158 220.519 142.994 221.035 143.852C221.283 144.281 221.537 144.71 221.762 145.153C222.007 145.605 222.223 146.071 222.41 146.549C221.596 145.909 220.914 145.116 220.403 144.215C220.139 143.773 219.915 143.308 219.734 142.827C219.545 142.338 219.434 141.823 219.407 141.3Z" fill="#263238"/>
<path d="M189.221 246.528H91.1174C91.1174 246.528 106.101 152.946 142.248 120.943C146.712 116.988 156.789 117.89 163.332 121.154C165.68 122.325 174.106 134.109 176.513 145.262C178.919 156.414 189.483 246.193 189.221 246.528Z" fill="#876445"/>
<path d="M130.951 147.937C129.934 148.298 128.974 148.802 128.101 149.435C130.256 149.228 132.321 148.463 134.091 147.218C133.016 147.306 131.958 147.549 130.951 147.937ZM178.672 158.843C178.629 158.869 178.588 158.898 178.548 158.93H178.679C178.679 158.93 178.672 158.835 178.672 158.813V158.843ZM153.183 173.601C152.168 173.966 151.209 174.47 150.333 175.099C152.488 174.891 154.553 174.127 156.324 172.881C155.249 172.961 154.191 173.193 153.183 173.572V173.601ZM139.828 214.212C138.811 214.575 137.851 215.082 136.978 215.717C138.054 215.626 139.112 215.381 140.118 214.99C141.135 214.626 142.094 214.119 142.968 213.485C141.892 213.576 140.834 213.821 139.828 214.212ZM117.385 185.858C116.37 186.223 115.411 186.727 114.535 187.356C116.69 187.149 118.754 186.385 120.525 185.139C119.458 185.237 118.41 185.487 117.414 185.88L117.385 185.858ZM97.2608 242.377C96.2447 242.739 95.2852 243.243 94.4109 243.874C96.5678 243.669 98.6333 242.902 100.402 241.65C99.3341 241.75 98.2864 242.003 97.2899 242.399L97.2608 242.377ZM140.584 238.836C139.568 239.198 138.608 239.702 137.734 240.334C139.891 240.128 141.956 239.361 143.724 238.109C142.656 238.207 141.608 238.459 140.613 238.858L140.584 238.836ZM188.85 242.82C188.155 242.958 187.471 243.153 186.807 243.402C185.792 243.765 184.833 244.269 183.957 244.899C185.034 244.808 186.091 244.563 187.098 244.172C187.722 243.938 188.33 243.661 188.916 243.344C188.923 243.206 188.908 243.024 188.879 242.842L188.85 242.82ZM168.574 213.085C167.558 213.447 166.598 213.951 165.724 214.583C167.879 214.376 169.944 213.611 171.715 212.365C170.647 212.46 169.599 212.71 168.603 213.107L168.574 213.085ZM141.056 132.794C140.694 131.778 140.19 130.818 139.559 129.944C139.766 132.099 140.53 134.163 141.776 135.934C141.691 134.858 141.448 133.8 141.056 132.794ZM119.471 242.558C119.111 241.542 118.607 240.582 117.974 239.709C118.186 241.86 118.952 243.919 120.198 245.685C120.109 244.613 119.864 243.56 119.471 242.558ZM115.167 215.23C114.802 214.215 114.293 213.257 113.655 212.387C113.747 213.461 113.992 214.516 114.382 215.521C114.743 216.538 115.25 217.498 115.887 218.371C115.798 217.295 115.556 216.237 115.167 215.23ZM152.485 198.988C152.122 197.973 151.618 197.014 150.987 196.138C151.195 198.294 151.959 200.358 153.205 202.129C153.116 201.053 152.874 199.996 152.485 198.988ZM139.282 163.953C138.918 162.937 138.411 161.978 137.777 161.104C137.983 163.26 138.75 165.326 140.002 167.094C139.913 166.018 139.671 164.961 139.282 163.953ZM157.356 243.925C157.424 244.825 157.607 245.712 157.901 246.564H158.774C158.423 245.613 157.946 244.713 157.356 243.889V243.925ZM185.15 223.569C184.788 222.551 184.282 221.591 183.645 220.719C183.74 221.792 183.985 222.847 184.372 223.852C184.733 224.87 185.24 225.83 185.877 226.702C185.789 225.618 185.544 224.553 185.15 223.54V223.569ZM168.181 143.946C167.818 142.931 167.311 141.974 166.676 141.103C166.772 142.177 167.016 143.231 167.403 144.237C167.759 145.256 168.263 146.216 168.901 147.087C168.812 146.011 168.57 144.953 168.181 143.946ZM160.475 128.279C159.501 127.815 158.465 127.494 157.4 127.326C159.073 128.705 161.078 129.622 163.216 129.987C162.383 129.29 161.455 128.714 160.46 128.279H160.475ZM128.363 201.751C127.389 201.284 126.353 200.961 125.287 200.791C126.111 201.492 127.032 202.069 128.021 202.507C128.996 202.968 130.031 203.288 131.096 203.46C130.272 202.762 129.351 202.186 128.363 201.751ZM102.997 227.306C102.023 226.842 100.987 226.521 99.9217 226.353C101.595 227.732 103.6 228.649 105.738 229.014C104.912 228.315 103.988 227.74 102.997 227.306ZM169.315 233.674C168.341 233.211 167.306 232.89 166.24 232.722C167.914 234.101 169.919 235.018 172.056 235.383C171.228 234.686 170.305 234.111 169.315 233.674ZM167.207 193.143C166.233 192.681 165.197 192.36 164.132 192.191C164.952 192.891 165.87 193.467 166.858 193.899C167.833 194.362 168.868 194.685 169.933 194.859C169.112 194.159 168.194 193.581 167.207 193.143ZM160.46 158.741C159.486 158.277 158.451 157.956 157.385 157.788C159.059 159.167 161.064 160.084 163.201 160.449C162.375 159.75 161.452 159.175 160.46 158.741ZM120.038 168.272C119.574 169.246 119.253 170.281 119.086 171.347C120.462 169.672 121.379 167.668 121.747 165.531C121.048 166.358 120.473 167.281 120.038 168.272ZM152.616 224.747C152.151 225.721 151.828 226.756 151.656 227.822C152.356 227 152.934 226.082 153.372 225.096C153.832 224.12 154.153 223.085 154.324 222.02C153.628 222.843 153.053 223.761 152.616 224.747ZM172.543 174.895C172.08 175.872 171.759 176.91 171.591 177.978C172.287 177.152 172.863 176.232 173.299 175.244C173.763 174.27 174.084 173.234 174.252 172.169C173.556 172.992 172.98 173.91 172.543 174.895ZM127.977 227.655C127.514 228.629 127.193 229.664 127.025 230.73C128.401 229.055 129.318 227.05 129.686 224.914C128.99 225.742 128.415 226.665 127.977 227.655ZM102.444 200.348C101.981 201.324 101.66 202.363 101.492 203.43C102.188 202.605 102.764 201.685 103.201 200.697C103.664 199.723 103.985 198.687 104.153 197.622C103.459 198.446 102.884 199.364 102.444 200.348ZM137.181 185.081C136.714 186.056 136.393 187.094 136.229 188.163C136.922 187.336 137.497 186.416 137.937 185.43C138.398 184.454 138.718 183.419 138.89 182.354C138.192 183.184 137.616 184.109 137.181 185.102V185.081ZM149.955 145.226C149.495 146.201 149.175 147.236 149.003 148.301C149.703 147.479 150.28 146.561 150.718 145.575C151.179 144.599 151.499 143.564 151.671 142.499C150.971 143.329 150.394 144.255 149.955 145.247V145.226Z" fill="white"/>
<path d="M125.462 249.894C125.462 244.405 127.054 211.239 126.109 200.363C125.789 196.727 138.381 156.065 141.63 142.412C144.684 129.602 138.163 123.946 128.588 136.007C120.627 146.04 99.8197 185.219 95.6176 195.681C91.4154 206.142 87.0388 241.388 87.0679 248.84C87.0969 254.736 125.44 255.318 125.462 249.894Z" fill="#FFBE9D"/>
<path d="M129.649 297.121C125.876 299.019 122.823 295.885 122.823 295.885C121.728 297.684 120.038 299.042 118.046 299.724C114.484 300.756 111.292 295.616 111.292 295.616C109.768 297.246 107.786 298.376 105.607 298.859C102.095 299.506 98.1476 294.78 98.1476 294.78C95.9197 295.502 93.5063 295.396 91.35 294.482C85.6866 291.814 84.5597 282.326 83.7818 276.307C83.0039 270.287 86.8716 250.723 87.177 247.262L125.382 243.627C125.382 243.627 136.563 269.662 136.469 276.874C136.367 282.981 133.859 294.984 129.649 297.121Z" fill="#FFBE9D"/>
<path d="M122.961 295.74C124.589 289.291 124.233 282.719 124.24 276.11C124.234 276.085 124.219 276.063 124.199 276.047C124.178 276.032 124.153 276.023 124.127 276.023C124.102 276.023 124.077 276.032 124.056 276.047C124.036 276.063 124.021 276.085 124.015 276.11C124.08 282.654 122.844 289.131 122.648 295.667C122.638 295.709 122.646 295.752 122.668 295.788C122.691 295.824 122.726 295.85 122.768 295.86C122.809 295.869 122.853 295.862 122.889 295.84C122.925 295.817 122.951 295.781 122.961 295.74Z" fill="#263238"/>
<path d="M111.757 295.427C111.981 293.927 112.013 292.405 111.852 290.898C111.772 289.291 111.663 287.692 111.532 286.085C111.275 282.886 110.936 279.69 110.514 276.496C110.514 276.357 110.274 276.35 110.289 276.496C110.543 279.687 110.747 282.886 110.863 286.085C110.929 287.692 110.972 289.291 111.009 290.898C110.943 292.412 111.045 293.928 111.314 295.42C111.328 295.467 111.357 295.509 111.396 295.539C111.436 295.568 111.484 295.585 111.533 295.586C111.582 295.586 111.631 295.572 111.671 295.543C111.711 295.514 111.742 295.474 111.757 295.427Z" fill="#263238"/>
<path d="M98.1111 294.642C98.4455 293.384 98.1111 291.85 97.9729 290.564C97.8275 289.109 97.6821 287.655 97.5513 286.201C97.2823 283.293 97.0206 280.385 96.8606 277.477C96.8606 277.332 96.6207 277.332 96.628 277.477C96.7806 280.443 96.8897 283.424 97.0714 286.39C97.1587 287.844 97.2532 289.298 97.355 290.753C97.4422 291.996 97.4131 293.552 97.9657 294.693C97.9948 294.729 98.0893 294.707 98.1111 294.642Z" fill="#263238"/>
<path d="M133.8 184.412L94.1853 184.543C94.1853 184.543 115.829 147.566 127.628 133.891C139.944 119.635 148.152 120.805 143.324 145.305C138.591 169.421 133.8 184.412 133.8 184.412Z" fill="#876445"/>
<path d="M120.038 168.272C119.573 169.246 119.253 170.282 119.086 171.347C120.462 169.672 121.379 167.668 121.747 165.531C121.048 166.358 120.473 167.281 120.038 168.272ZM125.942 135.949L125.534 136.451C126.048 136.623 126.576 136.747 127.112 136.821C126.748 136.497 126.357 136.205 125.942 135.949ZM113.277 156.305C113.085 155.794 112.864 155.294 112.615 154.808L112.15 155.535C112.252 155.898 112.368 156.262 112.492 156.603C112.855 157.621 113.361 158.58 113.997 159.453C113.913 158.36 113.67 157.285 113.277 156.262V156.305ZM139.282 163.983C138.918 162.966 138.411 162.007 137.777 161.133C137.868 162.209 138.113 163.267 138.504 164.274C138.65 164.644 138.802 165.001 138.962 165.371C139.071 164.921 139.181 164.47 139.297 164.005L139.282 163.983ZM141.056 132.823C140.694 131.807 140.19 130.847 139.559 129.973C139.766 132.128 140.53 134.193 141.776 135.964C141.694 134.877 141.451 133.809 141.056 132.794V132.823ZM101.347 175.819C100.344 176.172 99.3952 176.661 98.5258 177.273C100.676 177.062 102.735 176.298 104.502 175.055C103.42 175.147 102.358 175.394 101.347 175.789V175.819ZM130.951 147.967C129.934 148.327 128.974 148.831 128.101 149.464C130.256 149.257 132.32 148.493 134.091 147.247C133.017 147.326 131.959 147.559 130.951 147.937V147.967Z" fill="white"/>
<path d="M100.677 178.159C101.673 178.05 102.691 178.079 103.687 178.065L106.77 178.007C108.856 177.963 110.943 177.956 113.022 177.963C117.188 177.963 121.354 177.963 125.512 178.043C126.661 178.043 127.802 178.094 128.944 178.145C130.085 178.196 131.35 178.341 132.579 178.392C132.652 178.392 132.637 178.501 132.579 178.508C131.547 178.508 130.514 178.647 129.482 178.683C128.449 178.719 127.366 178.741 126.305 178.748C124.226 178.748 122.146 178.748 120.06 178.748C115.959 178.712 111.859 178.69 107.759 178.559L104.327 178.443C103.135 178.407 101.906 178.443 100.692 178.283C100.627 178.261 100.612 178.167 100.677 178.159Z" fill="#263238"/>
<path d="M139.1 166.04C139.95 164.753 140.545 163.314 140.853 161.802C140.853 161.802 140.809 161.765 140.802 161.802C140.376 163.102 139.841 164.364 139.202 165.575L139.573 163.939C140.009 161.954 140.453 159.984 140.794 157.985C140.794 157.985 140.751 157.934 140.743 157.985C139.747 161.373 138.904 164.819 137.988 168.236C137.072 171.653 136.141 175.164 135.233 178.632C134.731 180.53 134.229 182.42 133.779 184.317C133.132 184.375 132.63 184.354 132.056 184.405C131.903 184.405 131.888 184.681 132.056 184.695C132.782 184.753 133.512 184.74 134.237 184.659C136.192 178.545 137.69 172.292 139.1 166.04Z" fill="#263238"/>
<path d="M139.762 126.2C142.54 131.339 146.603 135.67 151.554 138.77C153.92 140.333 156.639 141.283 159.464 141.532C160.933 141.682 162.413 141.37 163.695 140.638C164.885 139.775 165.83 138.618 166.436 137.279C167.173 135.763 167.68 134.146 167.941 132.481C168.267 130.597 168.459 128.692 168.516 126.781C168.516 126.708 168.625 126.723 168.617 126.781C168.566 128.591 168.661 130.416 168.472 132.205C168.338 133.795 168.001 135.361 167.469 136.865C166.957 138.288 166.15 139.587 165.099 140.674C163.993 141.743 162.54 142.378 161.005 142.463C157.996 142.609 155.01 141.865 152.419 140.326C149.798 138.867 147.419 137.011 145.367 134.822C142.997 132.298 141.053 129.405 139.609 126.258C139.6 126.247 139.593 126.234 139.59 126.221C139.587 126.207 139.587 126.193 139.59 126.179C139.594 126.165 139.6 126.153 139.609 126.142C139.619 126.132 139.631 126.124 139.644 126.119C139.657 126.113 139.671 126.112 139.685 126.113C139.699 126.115 139.713 126.12 139.724 126.128C139.736 126.136 139.745 126.147 139.752 126.159C139.759 126.172 139.762 126.185 139.762 126.2Z" fill="#263238"/>
<path d="M161.95 137.519C156.352 139.082 146.305 130.838 142.19 123.989C141.914 123.517 142.445 118.435 142.801 112.219C142.997 108.446 143.135 104.222 142.983 100.398C142.946 99.6126 167.33 105.291 167.33 105.291C167.33 105.291 165.28 113.44 165.593 120.144C165.62 120.673 165.695 121.198 165.818 121.714C165.818 121.787 165.854 121.874 165.869 121.976C166.472 124.956 167.359 136.007 161.95 137.519Z" fill="#FFBE9D"/>
<path d="M163.397 122.201C164.224 122.194 165.048 122.119 165.862 121.976C165.853 121.887 165.839 121.8 165.818 121.714C165.692 121.199 165.616 120.673 165.593 120.144C165.287 113.448 167.323 105.291 167.323 105.291C167.323 105.291 147.534 100.681 143.637 100.34C144.56 104.753 149.162 122.463 163.397 122.201Z" fill="#263238"/>
<path d="M144.735 66.9405C140.373 74.7487 139.515 99.8598 144.284 106.541C151.205 116.225 165.157 120.049 174.048 111.129C182.663 102.463 183.194 69.7468 177.632 63.4C169.402 54.0578 151.198 55.4101 144.735 66.9405Z" fill="#FFBE9D"/>
<path d="M173.605 69.645C172.575 70.8974 171.242 71.866 169.733 72.4589C168.224 73.0518 166.589 73.2494 164.982 73.0329C161.798 72.5748 158.606 70.4447 157.414 67.3839C157.404 67.3686 157.389 67.3573 157.371 67.3518C157.354 67.3463 157.335 67.347 157.318 67.3539C157.3 67.3607 157.286 67.3732 157.277 67.3893C157.268 67.4053 157.265 67.424 157.269 67.4421C158.548 70.7064 161.267 73.3673 164.866 73.7962C166.573 73.968 168.294 73.6892 169.86 72.9876C171.425 72.2859 172.779 71.186 173.786 69.7976C173.874 69.674 173.699 69.5286 173.605 69.645Z" fill="#263238"/>
<path d="M164.161 49.3032C160.206 48.2418 155.873 50.1466 153.532 53.3963C152.183 55.3577 151.352 57.6287 151.118 59.9976C151.123 60.0139 151.133 60.0281 151.147 60.0382C151.161 60.0483 151.177 60.0538 151.194 60.0538C151.211 60.0538 151.228 60.0483 151.242 60.0382C151.256 60.0281 151.266 60.0139 151.271 59.9976C151.947 56.268 154.281 52.4948 157.748 50.7936C159.327 49.9526 161.129 49.6253 162.903 49.8573C164.677 50.0892 166.334 50.869 167.643 52.0877C169.091 53.4502 170.029 55.2662 170.304 57.235C170.316 57.2747 170.341 57.3089 170.376 57.3316C170.411 57.3542 170.452 57.3638 170.493 57.3585C170.535 57.3533 170.572 57.3336 170.6 57.3029C170.628 57.2723 170.644 57.2328 170.646 57.1913C170.505 55.3698 169.808 53.6357 168.647 52.2245C167.487 50.8133 165.921 49.7933 164.161 49.3032Z" fill="#263238"/>
<path d="M193.888 58.4271C192.994 55.8686 191.218 53.7117 188.879 52.3419C185.644 50.4226 182.038 50.7861 178.461 51.2151C178.445 51.2202 178.431 51.2303 178.421 51.244C178.41 51.2578 178.405 51.2744 178.405 51.2914C178.405 51.3084 178.41 51.3251 178.421 51.3388C178.431 51.3525 178.445 51.3627 178.461 51.3677C181.507 51.0115 184.619 50.8225 187.454 52.2111C189.799 53.3411 191.682 55.2468 192.783 57.6055C193.838 60.0329 193.984 62.7589 193.194 65.2848C192.403 67.8107 190.73 69.9676 188.479 71.3607C187.162 72.1291 185.701 72.6196 184.187 72.8022C182.673 72.9847 181.138 72.8554 179.675 72.4221C179.566 72.4221 179.479 72.5603 179.603 72.5966C181.581 73.265 183.706 73.369 185.741 72.897C187.775 72.4249 189.637 71.3956 191.119 69.9242C192.601 68.4529 193.644 66.5979 194.13 64.5671C194.617 62.5363 194.528 60.4102 193.874 58.4271H193.888Z" fill="#263238"/>
<path d="M143.324 70.3139C143.324 70.3139 143.761 62.6439 145.745 60.2956C147.73 57.9474 152.121 57.3876 152.121 57.3876C152.121 57.3876 154.68 50.8953 160.845 50.4591C166.4 50.0665 170.166 54.9666 170.166 54.9666C170.166 54.9666 177.843 47.3257 186.633 51.6514C194.979 55.7591 193.903 68.46 185.869 72.5313C180.199 75.3812 172.383 70.4448 172.383 70.4448C171.656 70.5538 164.073 75.2649 158.214 68.5327C158.214 68.5327 153.015 72.604 150.013 69.7614C150.006 69.7468 146.036 71.6807 143.324 70.3139Z" fill="#263238"/>
<path opacity="0.2" d="M149.606 61.4224C149.337 65.2174 148.464 76.0208 147.083 78.3909C145.702 80.761 142.408 86.9624 141.07 87.3986C141.216 79.2343 142.524 70.8808 144.706 66.9404C145.934 64.7778 147.603 62.8977 149.606 61.4224Z" fill="#263238"/>
<path d="M144.567 87.2606C144.567 87.2606 140.627 78.3401 136.679 79.5978C132.732 80.8556 134.622 93.0331 138.497 95.4104C138.974 95.7452 139.513 95.981 140.083 96.1039C140.653 96.2267 141.241 96.2342 141.814 96.1257C142.387 96.0173 142.932 95.7952 143.417 95.4725C143.903 95.1499 144.318 94.7332 144.64 94.2472L144.567 87.2606Z" fill="#FFBE9D"/>
<path d="M137.312 83.073C137.247 83.073 137.21 83.1457 137.269 83.182C139.959 84.9414 140.969 87.9658 141.493 90.9975C140.838 89.7397 139.769 88.9109 138.112 89.6598C138.025 89.7034 138.112 89.8342 138.163 89.8342C138.707 89.7685 139.257 89.873 139.739 90.1334C140.221 90.3939 140.61 90.7974 140.853 91.2883C141.256 92.1189 141.566 92.9919 141.776 93.891C141.863 94.1745 142.358 94.1309 142.321 93.811C142.325 93.7869 142.325 93.7624 142.321 93.7383C143.121 90.0378 141.282 84.2362 137.312 83.073Z" fill="#263238"/>
<path d="M162.074 86.8316C162.074 86.7661 161.936 86.9043 161.936 86.977C161.936 88.6711 161.631 90.6124 160.075 91.1141C160.031 91.1141 160.031 91.2086 160.075 91.2086C161.965 91.0123 162.365 88.4384 162.074 86.8316Z" fill="#263238"/>
<path d="M160.628 85.0141C157.916 84.7087 157.494 90.1546 160.01 90.4381C162.525 90.7217 162.903 85.2686 160.628 85.0141Z" fill="#263238"/>
<path d="M172.681 87.5514C172.681 87.4859 172.812 87.6386 172.805 87.704C172.616 89.3909 172.688 91.3395 174.172 92.0665C174.223 92.0665 174.208 92.1683 174.172 92.1538C172.31 91.7175 172.238 89.1146 172.681 87.5514Z" fill="#263238"/>
<path d="M174.324 85.9011C177.058 85.9011 176.847 91.3688 174.324 91.3615C171.801 91.3542 172.034 85.9011 174.324 85.9011Z" fill="#263238"/>
<path d="M157.916 81.6265C158.555 81.2048 159.217 80.8994 159.893 80.565C160.534 80.084 161.317 79.8284 162.118 79.8379C162.368 79.8936 162.592 80.0298 162.756 80.2256C162.92 80.4214 163.016 80.6659 163.027 80.9212C163.027 82.0119 162.198 82.739 161.297 83.2552C160.407 83.8057 159.344 84.0053 158.316 83.815C158.092 83.753 157.89 83.6292 157.733 83.4579C157.577 83.2865 157.472 83.0745 157.43 82.8461C157.388 82.6177 157.411 82.3822 157.497 82.1665C157.583 81.9508 157.728 81.7637 157.916 81.6265Z" fill="#263238"/>
<path d="M177.713 83.793C177.151 83.2954 176.563 82.827 175.953 82.3898C175.404 81.8131 174.681 81.4325 173.895 81.3064C173.64 81.3159 173.394 81.4093 173.197 81.5723C173 81.7353 172.862 81.9587 172.805 82.208C172.63 83.2841 173.299 84.142 174.092 84.8109C174.866 85.5131 175.875 85.9018 176.92 85.9016C177.159 85.8892 177.389 85.8074 177.582 85.6662C177.775 85.525 177.923 85.3306 178.007 85.1068C178.091 84.8829 178.108 84.6394 178.056 84.406C178.003 84.1727 177.884 83.9596 177.713 83.793Z" fill="#263238"/>
<path d="M162.677 100.02C164.858 99.2928 167.606 99.7944 169.337 100.136C169.533 100.136 169.737 99.7435 169.78 99.569C169.78 99.5036 169.926 95.9921 169.926 95.9921C170.376 96.2611 172.696 97.5043 172.703 96.8282C172.761 91.252 172.826 85.0505 171.707 79.4888C171.707 79.4484 171.691 79.4095 171.662 79.3809C171.633 79.3523 171.595 79.3362 171.554 79.3362C171.514 79.3362 171.475 79.3523 171.446 79.3809C171.418 79.4095 171.401 79.4484 171.401 79.4888C171.132 84.847 171.809 90.2196 171.62 95.5995C170.799 95.1445 169.918 94.8091 169.002 94.6035C168.813 94.6399 169.046 98.3913 168.937 98.9656C168.937 98.9656 165.607 97.7006 162.699 99.2782C161.95 99.6926 161.638 100.354 162.677 100.02Z" fill="#263238"/>
<path d="M159.086 102.273C159.464 102.695 159.813 103.255 160.431 103.349C161.054 103.379 161.676 103.275 162.256 103.044C162.268 103.038 162.283 103.037 162.296 103.04C162.31 103.044 162.321 103.052 162.329 103.063C162.337 103.075 162.341 103.089 162.339 103.102C162.338 103.116 162.331 103.129 162.321 103.139C162.057 103.444 161.714 103.673 161.33 103.801C160.947 103.929 160.536 103.951 160.14 103.866C159.804 103.756 159.509 103.548 159.292 103.27C159.074 102.992 158.944 102.655 158.919 102.302C158.904 102.244 159.035 102.215 159.086 102.273Z" fill="#263238"/>
<path d="M151.525 82.9494C149.22 82.9494 150.456 78.5872 150.943 77.0823C151.281 75.4741 151.476 73.8393 151.525 72.1968C151.574 73.8405 151.776 75.4761 152.128 77.0823C152.608 78.5945 153.844 82.9494 151.525 82.9494Z" fill="white"/>
<path d="M180.373 94.7271C180.555 92.7279 180.693 90.7358 180.78 88.7365C180.868 86.7372 180.933 84.7452 180.918 82.7459C180.904 80.7466 180.875 78.7619 180.78 76.7626C180.78 75.7666 180.679 74.7706 180.599 73.7745C180.519 72.7785 180.424 71.7753 180.373 70.772C180.823 72.7315 181.146 74.718 181.34 76.719C181.551 78.7234 181.653 80.7377 181.645 82.7532C181.645 84.766 181.543 86.7776 181.34 88.7802C181.231 89.7762 181.107 90.7722 180.962 91.7682C180.817 92.7642 180.62 93.7384 180.373 94.7271Z" fill="#263238"/>
<path d="M136.032 299.099C136.083 299.397 136.141 299.695 136.2 300C136.149 299.702 136.091 299.397 136.04 299.099H136.032Z" fill="#EBEBEB"/>
<path d="M133.088 63.2035C135.078 60.2632 136.158 56.8013 136.192 53.2507C136.192 40.6079 122.313 30.3569 105.199 30.3569C88.0852 30.3569 74.2138 40.6079 74.2138 53.2507C74.2138 65.8935 88.0852 76.1371 105.199 76.1371C113.494 76.1371 121.019 73.738 126.573 69.8048L137.253 72.5166L133.088 63.2035Z" fill="white"/>
<path d="M133.088 63.2035C134.903 60.3784 135.909 57.1094 135.996 53.7523C136.038 50.4173 135.131 47.1391 133.379 44.3011C131.627 41.4883 129.319 39.0636 126.595 37.1764C123.882 35.2819 120.896 33.811 117.74 32.8143C114.587 31.8049 111.319 31.1991 108.013 31.0113C104.714 30.8059 101.403 30.9913 98.1473 31.5638C94.8969 32.1186 91.7385 33.1192 88.7615 34.5373C85.7959 35.927 83.0908 37.8156 80.7644 40.1208C78.4392 42.395 76.7047 45.2026 75.7116 48.2997C74.7409 51.3867 74.698 54.6907 75.588 57.8018C76.5139 60.9322 78.1969 63.7863 80.4881 66.1116C82.7938 68.4486 85.4842 70.3717 88.4417 71.7969C91.4129 73.2243 94.5624 74.2464 97.8056 74.8358C101.058 75.4543 104.373 75.6789 107.678 75.5046C114.341 75.254 120.806 73.1793 126.37 69.5068L126.501 69.4123L126.646 69.4559L137.283 72.3203L137.079 72.5602L133.088 63.2035ZM133.088 63.2035L137.399 72.4294L137.552 72.7565L137.195 72.6693L126.479 70.1102L126.755 70.0593C123.989 72.033 120.937 73.5703 117.704 74.6177C114.48 75.6851 111.133 76.3374 107.744 76.5588C104.343 76.7961 100.925 76.6228 97.5657 76.0426C94.2038 75.449 90.9385 74.3997 87.86 72.9237C84.7536 71.4527 81.9251 69.4555 79.4994 67.0204C77.0359 64.5618 75.2135 61.5361 74.1921 58.2089C73.2029 54.8368 73.2333 51.2475 74.2794 47.8926C75.3603 44.5843 77.232 41.5897 79.732 39.1684C82.2049 36.7713 85.0726 34.8185 88.209 33.3959C91.3026 31.9466 94.5806 30.929 97.951 30.3715C104.685 29.2006 111.605 29.7304 118.082 31.9128C121.313 32.9921 124.358 34.5613 127.112 36.5657C129.891 38.5535 132.219 41.1051 133.946 44.0539C135.671 46.9934 136.51 50.3688 136.362 53.774C136.213 57.1792 135.084 60.4689 133.11 63.2472L133.088 63.2035Z" fill="#263238"/>
<path d="M80.5386 50.8006C80.5376 50.7268 80.5514 50.6536 80.5792 50.5852C80.607 50.5168 80.6482 50.4547 80.7004 50.4026C80.7526 50.3504 80.8147 50.3092 80.883 50.2814C80.9514 50.2536 81.0246 50.2398 81.0984 50.2408C81.1729 50.2398 81.2468 50.2535 81.316 50.2811C81.3851 50.3088 81.4482 50.3497 81.5015 50.4017C81.5549 50.4537 81.5974 50.5157 81.6268 50.5841C81.6562 50.6525 81.6718 50.7261 81.6727 50.8006V56.8348C81.6727 56.9099 81.6578 56.9842 81.6289 57.0535C81.5999 57.1228 81.5575 57.1856 81.5041 57.2384C81.4507 57.2911 81.3873 57.3328 81.3176 57.3608C81.248 57.3889 81.1735 57.4028 81.0984 57.4019C81.0243 57.4019 80.9509 57.3872 80.8825 57.3586C80.8141 57.33 80.752 57.2881 80.7 57.2354C80.6479 57.1826 80.6068 57.12 80.5791 57.0513C80.5514 56.9825 80.5376 56.9089 80.5386 56.8348V50.8006Z" fill="#263238"/>
<path d="M83.3594 52.5602C83.5733 52.5262 83.7666 52.4132 83.9012 52.2436C84.0358 52.074 84.1019 51.86 84.0865 51.6441C83.9259 51.6114 83.781 51.5253 83.6754 51.3999C83.5698 51.2746 83.5097 51.1172 83.5048 50.9533V50.8443C83.5017 50.7531 83.5175 50.6622 83.5512 50.5774C83.5849 50.4926 83.6358 50.4157 83.7007 50.3515C83.7656 50.2873 83.843 50.2372 83.9282 50.2044C84.0133 50.1716 84.1044 50.1567 84.1955 50.1608C84.6463 50.1608 84.9226 50.5098 84.9226 51.0624V51.1642C84.9544 51.6962 84.774 52.2191 84.4209 52.6184C84.1652 52.8774 83.8242 53.035 83.4612 53.0619C83.4204 53.0672 83.3789 53.0635 83.3397 53.0512C83.3005 53.0389 83.2644 53.0182 83.2339 52.9905C83.2035 52.9628 83.1794 52.9289 83.1634 52.891C83.1474 52.8531 83.1399 52.8122 83.1413 52.771C83.1554 52.7196 83.1831 52.6729 83.2215 52.6358C83.2599 52.5987 83.3075 52.5726 83.3594 52.5602Z" fill="#263238"/>
<path d="M92.098 50.8006V56.8348C92.0942 56.9853 92.0323 57.1284 91.9252 57.2342C91.8181 57.3399 91.6742 57.4 91.5236 57.4019C91.4495 57.4019 91.3761 57.3872 91.3077 57.3586C91.2393 57.33 91.1773 57.2881 91.1252 57.2354C91.0731 57.1826 91.0321 57.12 91.0044 57.0513C90.9767 56.9825 90.9629 56.9089 90.9638 56.8348V52.5309L89.5098 54.5811C89.458 54.654 89.3893 54.7133 89.3095 54.7538C89.2297 54.7944 89.1413 54.8149 89.0518 54.8137C88.9604 54.8143 88.8701 54.7935 88.7881 54.7532C88.706 54.7128 88.6345 54.6539 88.5792 54.5811L87.1252 52.5309V56.8348C87.1252 56.9852 87.0655 57.1294 86.9591 57.2358C86.8528 57.3421 86.7085 57.4019 86.5581 57.4019C86.4077 57.4019 86.2635 57.3421 86.1571 57.2358C86.0508 57.1294 85.9911 56.9852 85.9911 56.8348V50.8006C85.9929 50.6527 86.0525 50.5114 86.1571 50.4068C86.2617 50.3022 86.403 50.2427 86.5509 50.2408C86.638 50.2413 86.7237 50.2627 86.8009 50.3032C86.878 50.3436 86.9444 50.402 86.9943 50.4734L89.03 53.3015L91.0656 50.4734C91.119 50.4003 91.1891 50.3411 91.27 50.3006C91.351 50.2601 91.4404 50.2396 91.5309 50.2408C91.6789 50.2444 91.82 50.3043 91.9254 50.4083C92.0308 50.5123 92.0925 50.6526 92.098 50.8006Z" fill="#263238"/>
<path d="M97.42 55.6208C97.5088 55.5179 97.6337 55.453 97.769 55.4395C97.9043 55.4259 98.0396 55.4648 98.147 55.5481C98.6953 56.017 99.3824 56.2928 100.103 56.3333C100.558 56.344 101.006 56.2118 101.382 55.9553C101.509 55.879 101.616 55.7731 101.694 55.6464C101.771 55.5198 101.816 55.3763 101.826 55.2282C101.825 55.1125 101.793 54.9991 101.731 54.9011C101.653 54.7785 101.548 54.6743 101.426 54.5957C100.992 54.3499 100.516 54.1871 100.023 54.1159C99.5695 54.0362 99.1277 53.902 98.7068 53.716C98.3185 53.5475 97.9875 53.2697 97.7544 52.9163C97.5977 52.6656 97.5145 52.3759 97.5145 52.0803C97.5243 51.7837 97.6037 51.4935 97.7464 51.2333C97.8892 50.9732 98.0911 50.7502 98.336 50.5826C98.8555 50.2257 99.4724 50.0378 100.103 50.0446C100.911 50.0863 101.689 50.37 102.335 50.8589C102.447 50.9383 102.525 51.058 102.553 51.1933C102.58 51.3286 102.554 51.4692 102.48 51.5859C102.444 51.6454 102.396 51.6969 102.339 51.7371C102.282 51.7774 102.218 51.8055 102.15 51.8198C102.081 51.8341 102.011 51.8343 101.943 51.8203C101.875 51.8063 101.81 51.7785 101.753 51.7386C101.281 51.3603 100.706 51.1323 100.103 51.0842C99.6951 51.0788 99.2961 51.2008 98.9612 51.4332C98.8483 51.5012 98.7536 51.5956 98.6852 51.7083C98.6168 51.8211 98.5768 51.9487 98.5687 52.0803C98.5633 52.18 98.5886 52.279 98.6414 52.3638C98.7166 52.4693 98.8102 52.5604 98.9176 52.6328C99.3116 52.8631 99.7459 53.0161 100.197 53.0835C100.684 53.1661 101.158 53.3103 101.608 53.5125C102.023 53.6939 102.378 53.9887 102.633 54.3631C102.791 54.6236 102.874 54.9232 102.873 55.2282C102.866 55.5398 102.786 55.8455 102.638 56.1198C102.49 56.3941 102.279 56.6293 102.022 56.8059C101.47 57.1964 100.808 57.4002 100.132 57.3875C99.171 57.346 98.2509 56.9881 97.5145 56.3697C97.4052 56.2811 97.3343 56.1538 97.3167 56.0142C97.2991 55.8747 97.3361 55.7337 97.42 55.6208Z" fill="#263238"/>
<path d="M110.114 51.1279C110.775 51.8273 111.145 52.7532 111.146 53.7161C111.149 54.6798 110.779 55.6073 110.114 56.3042C109.804 56.646 109.428 56.92 109.007 57.1089C108.587 57.2979 108.132 57.3977 107.671 57.402C107.2 57.4006 106.734 57.3024 106.303 57.1135C105.871 56.9247 105.483 56.6492 105.163 56.3042C104.504 55.6047 104.142 54.677 104.152 53.7161C104.145 52.7558 104.507 51.8295 105.163 51.1279C105.484 50.7839 105.872 50.5095 106.304 50.3219C106.735 50.1343 107.2 50.0375 107.671 50.0374C108.131 50.0403 108.586 50.1388 109.007 50.3265C109.427 50.5142 109.804 50.7871 110.114 51.1279ZM109.976 53.7161C109.978 53.0544 109.731 52.4161 109.285 51.9276C109.082 51.7003 108.833 51.5182 108.555 51.393C108.277 51.2678 107.976 51.2022 107.671 51.2006C107.359 51.1997 107.051 51.2639 106.765 51.3891C106.48 51.5143 106.224 51.6977 106.013 51.9276C105.551 52.4089 105.291 53.0489 105.286 53.7161C105.287 54.3819 105.548 55.0211 106.013 55.4972C106.218 55.7293 106.47 55.9152 106.752 56.0425C107.034 56.1698 107.34 56.2357 107.649 56.2357C107.959 56.2357 108.264 56.1698 108.547 56.0425C108.829 55.9152 109.08 55.7293 109.285 55.4972C109.726 55.0229 109.972 54.4001 109.976 53.7524V53.7161Z" fill="#263238"/>
<path d="M117.9 56.5513C117.924 56.6229 117.934 56.6985 117.928 56.7739C117.923 56.8492 117.903 56.9227 117.869 56.9902C117.835 57.0577 117.789 57.1179 117.731 57.1674C117.674 57.2168 117.608 57.2545 117.537 57.2783C117.462 57.2863 117.386 57.2863 117.311 57.2783C117.169 57.2794 117.03 57.239 116.911 57.162C116.774 57.0729 116.661 56.9503 116.584 56.8058C116.42 56.418 116.348 55.9975 116.373 55.5771C116.372 55.4233 116.329 55.2728 116.25 55.1409C116.171 55.0207 116.066 54.919 115.944 54.8428C115.767 54.7314 115.573 54.648 115.37 54.5957H114.163V56.7767C114.163 56.8518 114.148 56.9261 114.119 56.9954C114.09 57.0647 114.048 57.1275 113.995 57.1803C113.941 57.233 113.878 57.2746 113.808 57.3027C113.738 57.3308 113.664 57.3447 113.589 57.3438C113.515 57.3438 113.441 57.3291 113.373 57.3005C113.305 57.2719 113.242 57.23 113.19 57.1772C113.138 57.1245 113.097 57.0619 113.07 56.9932C113.042 56.9244 113.028 56.8508 113.029 56.7767V50.7425C113.028 50.6687 113.042 50.5955 113.07 50.5271C113.097 50.4587 113.139 50.3966 113.191 50.3445C113.243 50.2923 113.305 50.2511 113.373 50.2233C113.442 50.1955 113.515 50.1817 113.589 50.1827H115.421C115.999 50.1827 116.554 50.4125 116.963 50.8215C117.372 51.2305 117.602 51.7853 117.602 52.3637C117.601 52.6853 117.528 53.0026 117.39 53.2929C117.252 53.5833 117.051 53.8395 116.802 54.0431C116.941 54.1491 117.061 54.2767 117.158 54.4212C117.381 54.7466 117.5 55.1319 117.5 55.5262C117.49 55.7281 117.502 55.9304 117.537 56.1297C117.629 56.1621 117.711 56.2181 117.774 56.2921C117.838 56.3661 117.882 56.4554 117.9 56.5513ZM116.446 52.4364C116.447 52.2974 116.42 52.1595 116.368 52.0308C116.315 51.902 116.238 51.785 116.14 51.6863C116.042 51.5876 115.925 51.5093 115.797 51.4559C115.669 51.4025 115.531 51.375 115.392 51.375H114.134V53.4833H115.392C115.531 53.4862 115.67 53.4613 115.8 53.4101C115.93 53.3589 116.049 53.2823 116.149 53.1849C116.249 53.0875 116.329 52.9712 116.383 52.8427C116.438 52.7142 116.467 52.5761 116.468 52.4364H116.446Z" fill="#263238"/>
<path d="M124.291 56.5514C124.316 56.6225 124.326 56.6978 124.322 56.7731C124.318 56.8484 124.298 56.922 124.265 56.9897C124.232 57.0574 124.186 57.1178 124.129 57.1674C124.072 57.2169 124.006 57.2547 123.934 57.2784C123.859 57.2859 123.784 57.2859 123.709 57.2784C123.567 57.2795 123.428 57.239 123.309 57.1621C123.17 57.0751 123.057 56.952 122.982 56.8058C122.815 56.4188 122.74 55.9981 122.764 55.5772C122.766 55.4229 122.723 55.2714 122.64 55.141C122.565 55.0175 122.46 54.915 122.335 54.8429C122.158 54.7301 121.964 54.6467 121.761 54.5957H120.554V56.7768C120.554 56.8519 120.539 56.9262 120.51 56.9955C120.481 57.0647 120.439 57.1276 120.385 57.1803C120.332 57.2331 120.268 57.2747 120.199 57.3028C120.129 57.3308 120.054 57.3448 119.979 57.3438C119.905 57.3438 119.832 57.3291 119.763 57.3005C119.695 57.272 119.633 57.2301 119.581 57.1773C119.529 57.1246 119.488 57.062 119.46 56.9932C119.432 56.9245 119.419 56.8509 119.42 56.7768V50.7425C119.419 50.6688 119.432 50.5955 119.46 50.5272C119.488 50.4588 119.529 50.3967 119.581 50.3445C119.634 50.2923 119.696 50.2511 119.764 50.2234C119.832 50.1956 119.906 50.1818 119.979 50.1827H121.811C122.264 50.1781 122.707 50.3145 123.079 50.5728C123.45 50.8311 123.732 51.1987 123.886 51.6245C124.039 52.0503 124.056 52.5133 123.935 52.9493C123.813 53.3853 123.559 53.7727 123.207 54.0577C123.346 54.1637 123.466 54.2914 123.564 54.4358C123.784 54.7619 123.901 55.1472 123.898 55.5408C123.889 55.743 123.904 55.9455 123.942 56.1443C124.03 56.1769 124.108 56.2314 124.169 56.3027C124.23 56.3739 124.272 56.4595 124.291 56.5514ZM122.837 52.4365C122.838 52.2974 122.811 52.1596 122.758 52.0308C122.706 51.9021 122.628 51.785 122.53 51.6864C122.432 51.5877 122.316 51.5094 122.188 51.456C122.059 51.4025 121.921 51.375 121.782 51.375H120.525V53.4834H121.782C121.922 53.4863 122.061 53.4614 122.191 53.4102C122.321 53.3589 122.439 53.2824 122.539 53.185C122.639 53.0876 122.719 52.9713 122.774 52.8428C122.829 52.7143 122.857 52.5762 122.858 52.4365H122.837Z" fill="#263238"/>
<path d="M130.674 51.2006L128.58 54.1089V56.8646C128.581 56.9393 128.567 57.0135 128.539 57.0828C128.511 57.152 128.469 57.2149 128.416 57.2678C128.363 57.3206 128.301 57.3624 128.231 57.3905C128.162 57.4187 128.088 57.4327 128.013 57.4317C127.865 57.428 127.723 57.3668 127.619 57.261C127.514 57.1553 127.455 57.0132 127.453 56.8646V54.1089L125.374 51.2006C125.287 51.082 125.251 50.9338 125.273 50.7886C125.296 50.6434 125.375 50.5131 125.494 50.4263C125.612 50.3395 125.761 50.3034 125.906 50.3259C126.051 50.3484 126.181 50.4277 126.268 50.5462L128.013 52.9383L129.765 50.5462C129.808 50.4866 129.863 50.4359 129.925 50.3973C129.988 50.3586 130.057 50.3326 130.13 50.3208C130.202 50.3089 130.277 50.3115 130.348 50.3284C130.42 50.3453 130.487 50.376 130.547 50.419C130.607 50.462 130.657 50.5163 130.696 50.5788C130.735 50.6413 130.761 50.7109 130.773 50.7835C130.784 50.856 130.782 50.9302 130.765 51.0018C130.748 51.0734 130.717 51.1409 130.674 51.2006Z" fill="#263238"/>
</svg>
