<svg width="300" height="296" viewBox="0 0 300 296" fill="none" xmlns="http://www.w3.org/2000/svg">
<path d="M268.145 184.865C268.209 184.43 268.357 184.011 268.58 183.634C268.803 183.257 269.097 182.928 269.445 182.666C269.794 182.404 270.189 182.215 270.609 182.109C271.03 182.002 271.466 181.981 271.894 182.046C272.323 182.111 272.734 182.262 273.105 182.489C273.476 182.715 273.8 183.014 274.057 183.368C274.315 183.722 274.501 184.124 274.606 184.552C274.711 184.979 274.731 185.423 274.667 185.858L260.209 275.531H253.616L268.145 184.865Z" fill="#EBEBEB"/>
<path d="M273.299 185.969L213.724 119.435L213.287 120.167L210.402 125.027L268.408 190.464C268.697 190.797 269.047 191.069 269.44 191.264C269.833 191.458 270.26 191.572 270.696 191.597C271.132 191.623 271.568 191.56 271.98 191.412C272.392 191.265 272.771 191.035 273.096 190.738C273.42 190.44 273.682 190.079 273.868 189.678C274.054 189.276 274.159 188.84 274.178 188.397C274.197 187.953 274.129 187.51 273.978 187.093C273.827 186.676 273.596 186.294 273.299 185.969Z" fill="#EBEBEB"/>
<path d="M268.923 187.674C268.878 187.674 268.82 187.537 268.846 187.256C268.889 186.853 269.085 186.483 269.392 186.224C269.627 186.023 269.909 185.887 270.211 185.83C270.512 185.773 270.823 185.796 271.114 185.897C271.482 186.021 271.803 186.26 272.03 186.579C272.257 186.899 272.379 187.283 272.379 187.677C272.379 188.072 272.257 188.456 272.03 188.776C271.803 189.095 271.482 189.334 271.114 189.457C270.823 189.559 270.511 189.582 270.209 189.523C269.907 189.465 269.625 189.327 269.392 189.124C269.084 188.869 268.888 188.5 268.846 188.099C268.846 187.818 268.845 187.674 268.923 187.674C269 187.674 269.025 188.327 269.681 188.745C269.86 188.864 270.064 188.937 270.276 188.958C270.489 188.98 270.703 188.949 270.902 188.87C271.128 188.766 271.32 188.599 271.455 188.388C271.59 188.176 271.661 187.929 271.661 187.677C271.661 187.425 271.59 187.179 271.455 186.967C271.32 186.756 271.128 186.588 270.902 186.485C270.703 186.405 270.489 186.375 270.276 186.396C270.064 186.418 269.86 186.491 269.681 186.609C269.025 187.067 269.025 187.713 268.923 187.674Z" fill="#E0E0E0"/>
<path d="M269.829 182.095C269.899 182.036 270.58 182.677 271.621 183.768C272.252 184.4 272.848 185.068 273.408 185.767C273.786 186.219 274.066 186.749 274.228 187.32C274.389 187.891 274.43 188.49 274.346 189.079C274.194 189.666 273.889 190.201 273.463 190.627C273.036 191.052 272.504 191.353 271.923 191.496C271.465 191.622 270.986 191.653 270.516 191.587C270.046 191.521 269.593 191.358 269.186 191.11C267.849 190.254 267.38 189.386 267.425 189.353C267.47 189.32 268.132 190.006 269.404 190.659C270.132 191.036 270.975 191.111 271.756 190.869C272.217 190.739 272.636 190.49 272.974 190.146C273.312 189.803 273.556 189.377 273.684 188.909C273.744 188.413 273.706 187.91 273.571 187.43C273.436 186.95 273.208 186.502 272.9 186.113C272.347 185.322 271.724 184.656 271.262 184.062C270.317 182.918 269.764 182.161 269.829 182.095Z" fill="#E0E0E0"/>
<path d="M227.463 283.441H281.704C281.704 283.441 274.777 274.668 256.72 274.668C239.903 274.668 229.885 279.692 227.463 283.441Z" fill="#E0E0E0"/>
<path d="M214.065 108.885L216.822 104.685L213.416 102.026L210.492 106.259L214.065 108.885Z" fill="#EBEBEB"/>
<path d="M218.737 111.426L206.862 102.672L195.443 116.606C175.677 119.873 167.709 132.487 167.709 132.487L203.096 160.035C215.209 146.421 209.47 126.98 209.47 126.98L218.737 111.426Z" fill="#F5F5F5"/>
<path d="M209.496 126.98C209.387 127.13 206.155 124.935 202.286 122.074C198.418 119.213 195.359 116.763 195.468 116.613C195.578 116.463 198.803 118.658 202.678 121.519C206.553 124.38 209.58 126.83 209.496 126.98Z" fill="#E0E0E0"/>
<path d="M207.793 18.3564H277.604V89.3262H207.793V18.3564Z" fill="#EBEBEB"/>
<path d="M209.843 20.447H275.548V87.2425H209.843V20.447Z" fill="white"/>
<path d="M233.265 44.2517H252.132V63.4313H233.265V44.2517Z" fill="#E0E0E0"/>
<path d="M204.85 18.3762H207.793V89.3264H204.85V18.3762Z" fill="#E0E0E0"/>
<path d="M22.0857 111.694H91.8964V182.664H22.0857V111.694Z" fill="#EBEBEB"/>
<path d="M24.142 113.784H89.8465V180.58H24.142V113.784Z" fill="white"/>
<path d="M47.5577 137.589H66.4241V156.768H47.5577V137.589Z" fill="#E0E0E0"/>
<path d="M19.1427 111.713H22.0857V182.664H19.1427V111.713Z" fill="#E0E0E0"/>
<path d="M60.4894 17.7711L69.5305 17.8208L69.2871 63.5481L60.2461 63.4984L60.4894 17.7711Z" fill="#E0E0E0"/>
<path d="M124.438 17.8878L147.847 18.0166L147.713 43.2646L124.304 43.1358L124.438 17.8878Z" fill="#EBEBEB"/>
<path d="M101.139 17.7663L124.548 17.895L124.414 43.143L101.005 43.0142L101.139 17.7663Z" fill="#F5F5F5"/>
<path d="M147.814 25.0128C132.259 25.1433 116.69 25.0715 101.105 24.7974C101.038 24.7974 100.974 24.7706 100.927 24.7228C100.88 24.6751 100.854 24.6104 100.854 24.5428C100.854 24.4753 100.88 24.4106 100.927 24.3629C100.974 24.3151 101.038 24.2883 101.105 24.2883C116.662 24.2035 132.264 24.2883 147.814 24.582C147.871 24.582 147.924 24.6047 147.964 24.6451C148.004 24.6855 148.026 24.7403 148.026 24.7974C148.026 24.8545 148.004 24.9093 147.964 24.9497C147.924 24.9901 147.871 25.0128 147.814 25.0128Z" fill="#E0E0E0"/>
<path d="M119.91 42.7123L162.443 42.9463L162.333 63.517L119.801 63.2831L119.91 42.7123Z" fill="#EBEBEB"/>
<path d="M77.5786 42.4863L120.111 42.7202L120.001 63.291L77.4692 63.057L77.5786 42.4863Z" fill="#F5F5F5"/>
<path d="M162.414 48.6802C134.14 49.0067 105.808 48.6802 77.5537 48.2559C77.4873 48.2559 77.4235 48.229 77.3765 48.1813C77.3295 48.1335 77.3031 48.0688 77.3031 48.0013C77.3031 47.9337 77.3295 47.869 77.3765 47.8212C77.4235 47.7735 77.4873 47.7466 77.5537 47.7466C105.828 47.5965 134.166 47.6161 162.42 48.2428C162.471 48.2517 162.517 48.2786 162.55 48.3186C162.583 48.3586 162.601 48.4092 162.601 48.4615C162.601 48.5138 162.583 48.5644 162.55 48.6044C162.517 48.6444 162.471 48.6713 162.42 48.6802H162.414Z" fill="#E0E0E0"/>
<path d="M13.5392 63.5293H178.324V70.898H13.5392V63.5293Z" fill="#E0E0E0"/>
<path d="M144.653 67.0767H151.342V92.227H144.653V67.0767Z" fill="#E0E0E0"/>
<path d="M44.7947 67.0767H51.4841V92.227H44.7947V67.0767Z" fill="#E0E0E0"/>
<path d="M51.6679 0.711715L60.7089 0.760986L60.3711 63.6556L51.33 63.6063L51.6679 0.711715Z" fill="#EBEBEB"/>
<path d="M37.5458 12.4252L51.5925 12.5024L51.3213 63.4688L37.2745 63.3915L37.5458 12.4252Z" fill="#F5F5F5"/>
<path d="M37.6427 22.2561C37.6427 22.3929 40.785 22.5036 44.6662 22.5036C48.5474 22.5036 51.6897 22.3929 51.6897 22.2561C51.6897 22.1193 48.5474 22.0085 44.6662 22.0085C40.785 22.0085 37.6427 22.1193 37.6427 22.2561Z" fill="#E0E0E0"/>
<path d="M37.6427 20.1133C37.6427 20.2501 40.785 20.3608 44.6662 20.3608C48.5474 20.3608 51.6897 20.2501 51.6897 20.1133C51.6897 19.9765 48.5474 19.8657 44.6662 19.8657C40.785 19.8657 37.6427 19.9765 37.6427 20.1133Z" fill="#E0E0E0"/>
<path d="M37.6427 55.7158C37.6427 55.8526 40.785 55.9634 44.6662 55.9634C48.5474 55.9634 51.6897 55.8526 51.6897 55.7158C51.6897 55.579 48.5474 55.4683 44.6662 55.4683C40.785 55.4683 37.6427 55.5985 37.6427 55.7158Z" fill="#E0E0E0"/>
<path d="M37.6427 53.5926C37.6427 53.7294 40.785 53.8401 44.6662 53.8401C48.5474 53.8401 51.6897 53.7294 51.6897 53.5926C51.6897 53.4558 48.5474 53.3516 44.6662 53.3516C40.785 53.3516 37.6427 53.4623 37.6427 53.5926Z" fill="#E0E0E0"/>
<path d="M44.4349 48.9226C44.5698 48.9226 44.6726 43.7815 44.6726 37.4383C44.6726 31.0952 44.5698 25.9541 44.4349 25.9541C44.2999 25.9541 44.1907 31.0952 44.1907 37.4383C44.1907 43.7815 44.3063 48.9226 44.4349 48.9226Z" fill="#E0E0E0"/>
<path d="M22.2014 24.9543H37.4885V63.4246H22.2014V24.9543Z" fill="#EBEBEB"/>
<path d="M53.7266 11.4711C53.733 11.9865 53.8891 12.4884 54.1753 12.9138C54.4616 13.3392 54.8652 13.6691 55.3354 13.8618C55.8056 14.0546 56.3214 14.1017 56.8178 13.9972C57.3143 13.8928 57.7693 13.6413 58.1255 13.2746C58.4818 12.9079 58.7234 12.4423 58.82 11.9363C58.9166 11.4304 58.8639 10.9067 58.6684 10.4311C58.473 9.95554 58.1436 9.54935 57.7216 9.26365C57.2996 8.97794 56.804 8.82548 56.297 8.82544C55.9567 8.82541 55.6198 8.89407 55.3059 9.02742C54.9919 9.16078 54.7071 9.35618 54.468 9.60229C54.2289 9.8484 54.0402 10.1403 53.913 10.4611C53.7857 10.7819 53.7224 11.1252 53.7266 11.4711Z" fill="#E0E0E0"/>
<path d="M55.5195 18.7356H57.126V56.1476H55.5195V18.7356Z" fill="#E0E0E0"/>
<path d="M276.923 253.614L272.605 282.462H247.518L241.696 254.032L276.923 253.614Z" fill="#A77F5B"/>
<path d="M245.205 272.1C245.205 272.184 251.63 272.249 259.56 272.249C267.49 272.249 273.915 272.184 273.915 272.1C273.915 272.016 267.49 271.951 259.56 271.951C251.63 271.951 245.205 272.016 245.205 272.1Z" fill="#644C37"/>
<path d="M245.108 270.683C245.108 270.76 251.579 270.832 259.56 270.832C267.541 270.832 274.012 270.76 274.012 270.683C274.012 270.605 267.541 270.533 259.56 270.533C251.579 270.533 245.108 270.598 245.108 270.683Z" fill="#644C37"/>
<path d="M245.153 269.082C245.153 269.16 251.624 269.225 259.605 269.225C267.586 269.225 274.063 269.16 274.063 269.082C274.063 269.004 267.592 268.933 259.605 268.933C251.618 268.933 245.153 268.998 245.153 269.082Z" fill="#644C37"/>
<path d="M269.719 280.816C270.073 279.628 270.33 278.414 270.49 277.184C270.746 275.97 270.907 274.738 270.972 273.499C270.616 274.686 270.358 275.901 270.201 277.131C269.945 278.345 269.784 279.577 269.719 280.816Z" fill="#644C37"/>
<path d="M268.017 280.509C268.194 279.334 268.297 278.15 268.325 276.962C268.449 275.781 268.505 274.595 268.492 273.408C268.034 275.744 267.874 278.131 268.017 280.509Z" fill="#644C37"/>
<path d="M264.906 280.509C265.243 279.322 265.458 278.102 265.549 276.87C265.739 275.652 265.803 274.417 265.742 273.186C265.38 275.616 265.099 278.059 264.9 280.509H264.906Z" fill="#644C37"/>
<path d="M262.722 280.659C262.96 279.444 263.076 278.207 263.069 276.968C263.154 275.73 263.117 274.487 262.959 273.257C262.828 274.485 262.766 275.72 262.773 276.955C262.684 278.187 262.667 279.424 262.722 280.659Z" fill="#644C37"/>
<path d="M258.86 280.509C259.042 279.349 259.13 278.175 259.123 277.001C259.223 275.831 259.223 274.655 259.123 273.486C258.849 275.816 258.772 278.165 258.892 280.509H258.86Z" fill="#644C37"/>
<path d="M256.032 280.659C256.214 278.247 256.195 275.823 255.974 273.414C255.801 275.827 255.82 278.25 256.032 280.659Z" fill="#644C37"/>
<path d="M253.385 280.274C253.332 277.742 253.081 275.219 252.633 272.729C252.611 273.995 252.682 275.262 252.845 276.517C252.93 277.782 253.11 279.038 253.385 280.274Z" fill="#644C37"/>
<path d="M249.973 279.895C249.966 278.808 249.825 277.726 249.555 276.674C249.374 275.601 249.058 274.556 248.617 273.564C248.774 274.634 248.989 275.694 249.259 276.739C249.437 277.804 249.675 278.858 249.973 279.895Z" fill="#644C37"/>
<path d="M279.795 247.905V253.3C279.796 253.581 279.742 253.858 279.637 254.117C279.531 254.376 279.376 254.611 279.181 254.808C278.985 255.006 278.753 255.162 278.498 255.267C278.243 255.373 277.969 255.426 277.694 255.424H241.388C241.113 255.424 240.841 255.37 240.587 255.264C240.332 255.157 240.101 255.001 239.907 254.804C239.712 254.607 239.558 254.372 239.452 254.114C239.347 253.856 239.293 253.58 239.293 253.3V247.905H279.795Z" fill="#A77F5B"/>
<g opacity="0.4">
<path d="M276.646 255.423L276.344 257.141L242.834 259.572L241.979 255.423H276.646Z" fill="black"/>
</g>
<path d="M274.327 247.931C274.327 247.931 288.451 231.384 286.883 230.789C285.315 230.195 272.746 239.36 272.746 239.36C272.746 239.36 283.535 214.837 281.376 213.04C279.217 211.244 267.843 234.774 267.843 234.774C267.843 234.774 269.61 200.485 267.843 200.086C266.076 199.688 259.605 234.376 259.605 234.376C259.605 234.376 250.005 202.699 247.261 202.699C244.517 202.699 250.204 233.206 250.204 233.206C250.204 233.206 238.83 213.667 237.063 216.261C235.296 218.854 245.102 239.935 245.102 239.935C245.102 239.935 230.785 227.771 230.2 229.365C229.616 230.959 245.693 247.911 245.693 247.911L274.327 247.931Z" fill="#34A84E"/>
<path d="M276.299 223.009C276.203 222.963 273.729 228.418 270.702 235.199C267.676 241.98 265.363 247.506 265.465 247.552C265.568 247.598 268.036 242.136 271.056 235.362C274.076 228.588 276.409 223.048 276.299 223.009Z" fill="#235213"/>
<path d="M264.887 226.053C264.784 226.053 264.367 230.861 263.962 236.799C263.557 242.737 263.319 247.571 263.416 247.578C263.512 247.585 263.943 242.777 264.347 236.832C264.752 230.887 264.996 226.066 264.887 226.053Z" fill="#235213"/>
<path d="M249.157 210.695C249.165 210.829 249.193 210.962 249.24 211.087C249.317 211.381 249.42 211.741 249.549 212.178C249.844 213.178 250.243 214.53 250.731 216.17C251.727 219.547 253.064 224.218 254.426 229.405C255.788 234.591 256.919 239.328 257.709 242.757C258.089 244.429 258.41 245.801 258.641 246.82C258.744 247.265 258.834 247.624 258.905 247.924C258.929 248.056 258.97 248.183 259.027 248.303C259.027 248.169 259.012 248.035 258.982 247.905L258.789 246.788C258.615 245.821 258.333 244.423 257.973 242.698C257.253 239.249 256.167 234.507 254.799 229.307C253.43 224.107 252.055 219.442 250.988 216.091C250.461 214.412 250.011 213.06 249.703 212.126C249.549 211.701 249.426 211.349 249.324 211.061C249.282 210.933 249.226 210.81 249.157 210.695Z" fill="#235213"/>
<path d="M242.352 228.372C242.262 228.438 245.018 232.618 248.508 237.707C251.997 242.796 254.895 246.853 254.978 246.814C255.062 246.774 252.312 242.574 248.822 237.479C245.333 232.383 242.435 228.313 242.352 228.372Z" fill="#235213"/>
<path d="M269.565 247.578C270.015 247.339 270.43 247.037 270.799 246.683C271.739 245.893 272.636 245.052 273.485 244.161C274.336 243.274 275.141 242.34 275.895 241.365C276.24 240.974 276.527 240.534 276.749 240.059C276.659 239.987 275.188 241.797 273.209 243.861C271.229 245.925 269.488 247.486 269.565 247.578Z" fill="#235213"/>
<path d="M260.987 241.006C260.877 241.006 260.653 242.522 260.485 244.416C260.318 246.311 260.261 247.859 260.37 247.865C260.479 247.872 260.698 246.35 260.871 244.455C261.034 243.313 261.072 242.157 260.987 241.006Z" fill="#235213"/>
<path d="M77.5089 168.632C74.6098 168.086 71.9078 166.76 69.6844 164.792C67.4609 162.824 65.7975 160.285 64.8676 157.441C63.9376 154.597 63.7751 151.551 64.397 148.621C65.0189 145.691 66.4025 142.985 68.4034 140.784C68.958 140.073 69.7175 139.557 70.5754 139.307C72.4067 138.928 73.9361 140.659 75.0221 142.208L82.8873 153.365" fill="#263238"/>
<path d="M79.8993 156.592C73.3513 151.856 69.1616 142.684 68.4419 134.551C67.7222 126.418 72.8822 111.145 76.3072 103.757C80.4776 94.7614 82.1997 107.618 85.1878 109.192C86.9677 110.126 87.9702 112.171 88.1951 114.196C88.42 116.221 88.0023 118.253 87.5525 120.245C84.9821 132.356 82.4118 144.472 79.8414 156.592" fill="#263238"/>
<path d="M111.727 82.8459C124.829 78.4887 133.742 84.0871 137.758 88.6469C141.774 93.2066 143.586 99.3603 144.286 105.436C144.987 111.511 144.678 117.651 145.038 123.727C145.302 127.247 145.315 130.781 145.077 134.303C144.884 139.438 143.085 148.335 139.795 152.241C136.633 155.991 133.369 159.251 128.871 161.191C127.264 161.89 125.382 162.582 123.839 161.753C122.715 161.158 122.098 159.911 121.565 158.741C111.895 137.525 105.352 114.976 102.146 91.8217" fill="#263238"/>
<path d="M95.9446 94.4675L118.146 89.751L123.473 91.3515C135.682 93.5464 141.748 108.722 140.11 118.788C138.291 129.972 135.612 143.547 132.482 151.451C126.14 167.377 113.205 166.554 113.205 166.554C113.205 166.554 112.562 171.127 111.714 176.673C111.353 179.049 110.522 181.325 109.272 183.365C108.023 185.405 106.379 187.167 104.442 188.544C102.504 189.921 100.312 190.885 97.998 191.378C95.684 191.871 93.2958 191.882 90.9774 191.411C86.4962 190.5 82.5428 187.844 79.9615 184.01C77.3802 180.176 76.3754 175.469 77.1618 170.892L89.4866 99.1644C89.7908 97.7026 90.6226 96.4096 91.8179 95.5403C93.0132 94.6709 94.4855 94.2882 95.9446 94.4675Z" fill="#FFBE9D"/>
<path d="M132.109 129.802C131.989 130.356 131.66 130.841 131.193 131.152C130.726 131.463 130.158 131.577 129.61 131.468C129.339 131.428 129.079 131.332 128.846 131.188C128.612 131.044 128.409 130.853 128.249 130.628C128.089 130.403 127.975 130.147 127.914 129.876C127.853 129.605 127.846 129.324 127.894 129.051C128.016 128.499 128.344 128.016 128.809 127.705C129.275 127.395 129.84 127.28 130.387 127.385C130.658 127.425 130.918 127.52 131.152 127.665C131.386 127.809 131.589 127.999 131.75 128.224C131.91 128.45 132.025 128.705 132.086 128.976C132.148 129.247 132.156 129.528 132.109 129.802Z" fill="#263238"/>
<path d="M134.77 123.694C134.448 123.91 133.137 122.349 130.914 121.832C128.691 121.316 126.763 122.061 126.583 121.728C126.487 121.578 126.866 121.14 127.708 120.774C128.833 120.32 130.07 120.228 131.248 120.513C132.415 120.785 133.468 121.425 134.256 122.342C134.802 123.048 134.924 123.603 134.77 123.694Z" fill="#263238"/>
<path d="M117.767 139.203C117.767 139.072 119.238 139.15 121.565 139.392C122.156 139.464 122.721 139.477 122.908 139.098C123.089 138.507 123.089 137.873 122.908 137.282C122.689 135.747 122.458 134.14 122.22 132.448C121.301 125.582 120.774 119.984 121.05 119.951C121.327 119.918 122.291 125.458 123.21 132.324C123.424 134.018 123.625 135.634 123.814 137.171C123.884 137.883 124.083 138.719 123.595 139.523C123.467 139.712 123.298 139.87 123.101 139.983C122.904 140.097 122.684 140.162 122.458 140.176C122.121 140.19 121.784 140.159 121.455 140.084C119.161 139.653 117.748 139.333 117.767 139.203Z" fill="#263238"/>
<path d="M113.192 166.568C105.505 164.891 98.4281 161.076 92.751 155.547C92.751 155.547 95.9639 168.371 112.581 170.644L113.192 166.568Z" fill="#EB996E"/>
<path d="M115.447 143.906C115.17 143.215 114.719 142.609 114.139 142.151C113.559 141.692 112.872 141.396 112.144 141.293C111.634 141.188 111.106 141.206 110.603 141.347C110.101 141.488 109.638 141.747 109.253 142.103C108.858 142.497 108.583 142.996 108.458 143.543C108.332 144.091 108.363 144.663 108.546 145.193C108.79 145.752 109.195 146.223 109.708 146.543C110.221 146.864 110.817 147.02 111.418 146.989C112.583 146.883 113.708 146.5 114.702 145.872C115.004 145.739 115.274 145.541 115.492 145.291C115.575 145.068 115.613 144.831 115.605 144.594C115.598 144.356 115.544 144.122 115.447 143.906Z" fill="#EB996E"/>
<path d="M110.808 139.229C111.174 139.294 110.615 141.77 112.305 144.017C113.995 146.264 116.642 146.63 116.585 146.957C116.585 147.12 115.897 147.296 114.792 147.074C113.36 146.757 112.084 145.939 111.187 144.762C110.326 143.631 109.932 142.204 110.088 140.783C110.229 139.725 110.621 139.176 110.808 139.229Z" fill="#263238"/>
<path d="M135.573 117.201C135.065 117.625 133.645 116.724 131.788 116.26C129.931 115.796 128.273 115.803 128.035 115.176C127.933 114.875 128.299 114.418 129.102 114.085C130.159 113.714 131.302 113.671 132.383 113.962C133.464 114.252 134.436 114.864 135.175 115.718C135.682 116.404 135.804 116.985 135.573 117.201Z" fill="#263238"/>
<path d="M107.871 125.138C107.761 125.693 107.869 126.27 108.172 126.746C108.474 127.222 108.947 127.559 109.49 127.686C109.754 127.76 110.029 127.78 110.3 127.745C110.571 127.709 110.833 127.619 111.069 127.478C111.305 127.338 111.511 127.152 111.674 126.929C111.838 126.707 111.956 126.453 112.022 126.183C112.132 125.628 112.024 125.051 111.721 124.575C111.419 124.099 110.946 123.762 110.403 123.635C110.139 123.561 109.864 123.541 109.593 123.576C109.322 123.612 109.061 123.703 108.824 123.843C108.588 123.983 108.382 124.17 108.219 124.392C108.055 124.615 107.937 124.868 107.871 125.138Z" fill="#263238"/>
<path d="M104.594 117.932C104.799 118.265 106.624 117.377 108.88 117.821C111.135 118.265 112.588 119.742 112.883 119.507C113.025 119.409 112.883 118.853 112.241 118.2C111.391 117.322 110.296 116.732 109.105 116.508C107.93 116.271 106.711 116.425 105.628 116.946C104.838 117.325 104.491 117.775 104.594 117.932Z" fill="#263238"/>
<path d="M106.868 110.805C107.164 111.406 108.796 111.165 110.724 111.504C112.652 111.844 114.123 112.53 114.58 112.06C114.792 111.825 114.644 111.25 114.04 110.623C113.221 109.849 112.194 109.34 111.09 109.159C109.987 108.979 108.855 109.136 107.839 109.61C107.061 110.022 106.766 110.518 106.868 110.805Z" fill="#263238"/>
<path d="M116.07 87.5365C111.2 84.4335 103.058 83.7018 97.943 86.3606C92.828 89.0194 89.0625 93.9449 87.019 99.4257C84.9756 104.907 84.9049 113.516 85.3997 119.33C95.8418 109.747 106.849 98.5112 117.047 88.6601L116.07 87.5365Z" fill="#263238"/>
<path d="M120.973 83.2183C150.462 84.3223 140.026 128.064 140.026 128.064C140.026 111.249 120.703 90.1428 120.703 90.1428L116.308 88.5423L120.973 83.2183Z" fill="#263238"/>
<path d="M86.3187 127.679C86.595 126.444 85.856 123.217 84.6994 122.747C81.6214 121.486 75.806 120.395 73.8782 128.626C71.2436 139.882 82.9066 140.248 82.9965 139.928C83.0865 139.608 85.3613 131.932 86.3187 127.679Z" fill="#FFBE9D"/>
<path d="M82.1032 135.126C82.0583 135.074 81.8783 135.211 81.5185 135.29C81.012 135.375 80.4927 135.26 80.0663 134.969C78.9996 134.251 78.4534 132.121 78.8775 130.083C79.074 129.111 79.4824 128.196 80.0727 127.405C80.2594 127.078 80.5212 126.802 80.8356 126.601C81.1501 126.399 81.5079 126.279 81.8783 126.248C82.1141 126.242 82.3446 126.321 82.5291 126.47C82.7136 126.619 82.8404 126.83 82.8872 127.065C82.9643 127.411 82.8422 127.62 82.8872 127.653C82.9322 127.686 83.1699 127.522 83.1892 127.039C83.1948 126.745 83.0994 126.459 82.9193 126.229C82.6693 125.919 82.3091 125.722 81.9169 125.68C81.441 125.664 80.9688 125.771 80.5449 125.991C80.121 126.212 79.7595 126.539 79.4943 126.941C78.798 127.802 78.3174 128.822 78.0935 129.913C77.6308 132.2 78.2798 134.597 79.7707 135.459C80.0469 135.619 80.3552 135.713 80.6723 135.735C80.9895 135.756 81.3073 135.705 81.602 135.583C82.0197 135.414 82.1354 135.152 82.1032 135.126Z" fill="#EB996E"/>
<path d="M77.9457 98.0864C82.1739 90.8092 89.0946 85.4198 96.6643 81.9314C100.725 80.0631 105.127 78.6651 109.58 78.9395C114.033 79.2139 118.544 81.3369 120.858 85.2173L121.5 86.2037C114.592 96.4468 109.452 105.246 101.259 114.464C98.245 117.854 94.955 130.651 93.612 135.008C89.0111 149.877 79.6678 154.9 79.6678 154.9C61.9646 151.693 73.7175 105.364 77.9457 98.0864Z" fill="#263238"/>
<path d="M70.2861 164.621C70.3439 164.582 69.8363 163.765 69.3222 162.308C69.0229 161.461 68.8076 160.586 68.6796 159.695C68.5531 158.61 68.5531 157.514 68.6796 156.429C68.9402 154.434 69.6124 152.517 70.6524 150.805C71.462 149.498 72.111 148.786 72.0596 148.74C71.8838 148.88 71.7242 149.04 71.5841 149.217C71.1693 149.671 70.7911 150.158 70.4532 150.674C68.6755 153.34 67.94 156.585 68.3905 159.774C68.5287 160.686 68.7658 161.58 69.0973 162.439C69.2203 162.769 69.3619 163.092 69.5214 163.406C69.631 163.648 69.7577 163.881 69.9006 164.105C70.0075 164.292 70.137 164.466 70.2861 164.621Z" fill="white"/>
<path d="M69.3735 140.104C69.3947 140.041 69.4056 139.975 69.4057 139.908L69.4956 139.333C69.4956 139.072 69.5535 138.752 69.6113 138.379L69.8298 137.073C70.3562 134.349 71.2199 131.704 72.4001 129.201C74.1669 125.497 76.4288 122.059 79.1216 118.984C82.4529 115.246 86.14 111.852 90.1291 108.852C94.3316 105.586 98.4827 102.725 102.203 99.9874C105.506 97.5955 108.682 95.029 111.72 92.2986C113.763 90.4421 115.678 88.445 117.452 86.3213C118.094 85.5635 118.538 84.9625 118.833 84.5444L119.18 84.0675C119.221 84.014 119.258 83.9572 119.29 83.8977C119.238 83.9428 119.19 83.9931 119.148 84.048C119.058 84.1655 118.936 84.3158 118.782 84.4987C118.467 84.9103 117.979 85.4917 117.349 86.2364C115.548 88.3204 113.616 90.2843 111.566 92.1157C108.506 94.8156 105.315 97.3578 102.004 99.7326C98.2899 102.457 94.1196 105.325 89.9042 108.584C85.9009 111.598 82.2047 115.012 78.871 118.775C76.1728 121.88 73.9167 125.354 72.1688 129.097C71.0071 131.626 70.1754 134.298 69.6948 137.047C69.6241 137.537 69.5599 137.968 69.5085 138.353C69.4571 138.739 69.4442 139.052 69.425 139.307C69.4057 139.562 69.3928 139.745 69.38 139.901C69.3687 139.968 69.3665 140.036 69.3735 140.104Z" fill="white"/>
<path d="M76.9113 103.659C77.174 103.109 77.4882 102.586 77.8494 102.098C78.3133 101.54 78.8519 101.052 79.4495 100.647C80.2529 100.111 81.1156 99.6723 82.0198 99.3408C83.9926 98.5503 86.5179 98.0343 89.2104 97.2177C91.9028 96.4011 94.8844 95.4212 97.9238 94.2258C103.126 92.1868 108.165 89.7383 112.993 86.9028C114.843 85.8053 116.308 84.8711 117.304 84.2048L118.448 83.4209C118.586 83.3361 118.715 83.2377 118.834 83.127C118.686 83.1933 118.544 83.2719 118.41 83.3621L117.24 84.0938C116.218 84.747 114.734 85.6289 112.877 86.7068C108.028 89.4628 102.993 91.8642 97.8082 93.8926C94.7687 95.0881 91.8257 96.0876 89.1204 96.9041C86.4151 97.7207 83.9283 98.276 81.9299 99.1056C81.0228 99.4582 80.1601 99.9187 79.3595 100.477C78.7567 100.904 78.2196 101.419 77.7659 102.006C77.6041 102.212 77.458 102.431 77.3289 102.659C77.2259 102.827 77.1378 103.005 77.0655 103.188C76.9983 103.339 76.9466 103.497 76.9113 103.659Z" fill="#455A64"/>
<path d="M127.296 160.845L127.515 160.767L128.157 160.505C128.973 160.164 129.769 159.776 130.541 159.342C131.756 158.649 132.914 157.858 134.005 156.978C135.462 155.814 136.797 154.501 137.989 153.058C141.113 149.307 143.302 144.845 144.37 140.052C145.609 134.16 145.348 128.044 143.612 122.283C142.743 119.306 141.538 116.44 140.02 113.745C138.582 111.258 136.973 108.876 135.207 106.618C133.542 104.449 131.884 102.444 130.355 100.556C128.826 98.668 127.438 96.8846 126.223 95.2188C124.283 92.5975 122.637 89.7645 121.314 86.7722C121.095 86.2366 120.877 85.7727 120.729 85.3481C120.581 84.9235 120.466 84.5773 120.363 84.2833L120.132 83.6301C120.109 83.5532 120.079 83.4788 120.042 83.408C120.051 83.4885 120.07 83.5675 120.099 83.6431L120.299 84.2964C120.389 84.5969 120.504 84.9496 120.633 85.3743C120.761 85.7989 120.98 86.2758 121.192 86.818C122.477 89.8479 124.105 92.7154 126.043 95.3626C127.251 97.048 128.614 98.8444 130.156 100.739C131.698 102.633 133.317 104.658 134.975 106.814C136.725 109.067 138.32 111.44 139.75 113.915C141.251 116.598 142.444 119.447 143.303 122.407C145.004 128.11 145.256 134.158 144.036 139.987C142.993 144.741 140.845 149.172 137.771 152.908C135.707 155.429 133.228 157.566 130.445 159.225C129.443 159.787 128.659 160.205 128.1 160.44L127.457 160.734C127.4 160.766 127.347 160.803 127.296 160.845Z" fill="#455A64"/>
<path d="M68.7181 136.753C68.7304 137.026 68.7714 137.298 68.8402 137.563C68.9302 138.085 69.1037 138.83 69.335 139.745C69.9337 142.139 70.7959 144.458 71.9054 146.656C72.5293 147.861 73.2493 149.013 74.058 150.099C74.7231 150.979 75.4512 151.809 76.2364 152.581C76.7593 153.106 77.3107 153.601 77.8878 154.064C78.0838 154.247 78.2994 154.407 78.5304 154.541C78.569 154.495 77.6694 153.763 76.3842 152.411C75.6359 151.62 74.9342 150.785 74.2829 149.909C73.5011 148.824 72.7988 147.682 72.1817 146.493C71.0847 144.315 70.2002 142.033 69.5406 139.679C69.3029 138.824 69.1037 138.105 68.9495 137.53C68.9008 137.263 68.8232 137.002 68.7181 136.753Z" fill="#455A64"/>
<path d="M10.4741 282.089L19.6502 222.865C19.6502 222.865 31.3967 176.262 40.8556 170.409C50.3144 164.555 75.1504 165.464 75.1504 165.464L77.1296 169.716C78.5476 172.774 80.6957 175.421 83.3782 177.418C86.0608 179.415 89.1923 180.698 92.4874 181.149C95.7825 181.601 99.1364 181.206 102.243 180.002C105.35 178.798 108.111 176.823 110.274 174.256L120.479 176.804C129.134 178.923 136.663 184.333 141.517 191.92C141.684 192.182 148.489 201.445 148.65 201.719C152.203 207.638 186.222 248.871 186.222 248.871C186.222 248.871 210.98 236.877 212.041 237.047C213.101 237.217 222.836 249.381 222.836 249.381C222.836 249.381 192.191 281.776 179.211 280.241C166.231 278.706 151.965 256.919 151.965 256.919L125.504 231.103C121.777 245.37 109.715 282.168 109.715 282.168L10.4741 282.089Z" fill="#A77F5B"/>
<g opacity="0.3">
<path d="M159.734 258.121C162.427 255.038 166.211 253.209 169.951 251.621C183.227 245.977 197.242 242.397 211.193 238.837C211.605 238.687 212.053 238.667 212.478 238.778C213.364 239.125 213.403 240.372 213.255 241.333L213.114 242.286L213.756 243.665C205.697 253.95 195.362 262.156 183.593 267.613C180.291 269.148 176.769 270.487 173.145 270.298C168.917 270.082 165.087 267.835 161.45 265.64C160.03 264.791 158.475 263.739 158.186 262.093C157.922 260.636 158.764 259.219 159.734 258.121Z" fill="black"/>
</g>
<path d="M131.383 203.111C131.342 203.253 131.316 203.4 131.306 203.548C131.268 203.875 131.21 204.293 131.146 204.809C131.081 205.325 130.979 206.024 130.863 206.769C130.747 207.514 130.606 208.428 130.432 209.382C129.751 213.269 128.505 218.58 127.046 224.407C125.587 230.234 124.154 235.512 123.229 239.353C122.766 241.274 122.419 242.829 122.194 243.926C122.092 244.442 122.008 244.854 121.95 245.174C121.91 245.316 121.889 245.463 121.886 245.611C121.942 245.475 121.985 245.332 122.014 245.187C122.092 244.873 122.194 244.462 122.323 243.959C122.58 242.881 122.965 241.346 123.46 239.425C124.469 235.571 125.851 230.28 127.367 224.505C128.884 218.73 130.04 213.328 130.664 209.421C130.824 208.448 130.959 207.566 131.049 206.808C131.139 206.05 131.242 205.358 131.274 204.809C131.306 204.26 131.345 203.862 131.37 203.535C131.389 203.394 131.393 203.252 131.383 203.111Z" fill="#263238"/>
<path d="M74.8677 246.467C75.1948 246.477 75.5221 246.453 75.8444 246.395C76.1615 246.369 76.5406 246.317 76.9818 246.239C77.4252 246.154 77.9329 246.082 78.4791 245.945C79.7723 245.656 81.0453 245.281 82.2896 244.821C83.8143 244.252 85.2962 243.571 86.7234 242.783C88.1407 241.978 89.5 241.072 90.791 240.072C91.838 239.245 92.8318 238.35 93.7662 237.394C94.171 237.002 94.5052 236.603 94.8072 236.27C95.1092 235.937 95.3598 235.617 95.5526 235.375C95.7698 235.126 95.9635 234.857 96.1309 234.572C95.8862 234.793 95.6585 235.033 95.4498 235.29C95.2442 235.525 94.9871 235.819 94.6722 236.139C94.3574 236.459 94.0297 236.845 93.5991 237.224C92.6525 238.154 91.6526 239.027 90.6047 239.837C88.0371 241.812 85.2017 243.398 82.1868 244.547C80.9581 245.017 79.7028 245.412 78.4276 245.729C77.8879 245.886 77.3867 245.971 76.9497 246.069C76.5127 246.167 76.1336 246.239 75.8252 246.284C75.5017 246.319 75.1815 246.38 74.8677 246.467Z" fill="#263238"/>
<path d="M74.8613 161.955C73.3448 160.126 74.0324 158.506 74.9127 157.801C76.365 156.618 78.1257 157.043 79.4109 158.108C83.4206 161.374 88.0408 164.248 92.1405 167.39C96.2402 170.533 101.676 172.839 106.457 170.925C107.537 170.493 108.546 169.853 109.67 169.514C110.218 169.305 110.807 169.235 111.387 169.311C111.967 169.386 112.52 169.603 112.999 169.945C113.892 170.702 114.033 173.642 113.044 174.263C111.212 179.103 106.811 182.703 101.889 184.062C96.9663 185.42 91.6072 184.676 86.9548 182.579C82.3025 180.482 78.2735 177.091 74.8742 173.231C73.6512 171.997 72.7254 170.492 72.1689 168.834C71.5327 166.502 74.8613 161.955 74.8613 161.955Z" fill="#A77F5B"/>
<path d="M73.5954 160.466C73.6706 160.6 73.7612 160.725 73.8653 160.838C74.058 161.08 74.3279 161.433 74.7006 161.877C75.4332 162.765 76.5384 164.026 77.9843 165.502C79.6764 167.232 81.4936 168.831 83.4206 170.284C85.7833 172.072 88.3537 173.558 91.0737 174.707C96.9084 177.117 102.801 177.352 106.811 176.503C108.405 176.2 109.955 175.693 111.424 174.994C111.826 174.799 112.217 174.581 112.594 174.341C112.731 174.272 112.862 174.191 112.986 174.099C112.986 174.067 112.414 174.38 111.373 174.844C109.896 175.491 108.35 175.96 106.766 176.242C102.795 177.019 96.9663 176.752 91.2023 174.367C88.5081 173.235 85.9562 171.781 83.6005 170.036C81.6755 168.6 79.8524 167.029 78.1449 165.333C76.6862 163.889 75.5746 162.654 74.797 161.792L73.9167 160.806C73.8241 160.679 73.7161 160.565 73.5954 160.466Z" fill="#263238"/>
<path d="M74.7392 169.507C74.7847 169.607 74.8408 169.701 74.9063 169.788C75.0541 169.99 75.2276 170.245 75.4396 170.546C75.9087 171.199 76.6156 172.133 77.528 173.257C82.2939 179.093 87.9317 184.132 94.2353 188.19C95.4434 188.961 96.4458 189.562 97.1462 189.941L97.9559 190.385C98.1487 190.483 98.245 190.529 98.2515 190.516C98.1727 190.443 98.0865 190.38 97.9944 190.326L97.2105 189.83C96.5293 189.412 95.5526 188.785 94.3638 187.988C88.1552 183.835 82.5451 178.825 77.6951 173.1C76.7634 172.002 76.0308 171.101 75.536 170.487C75.2983 170.199 75.1055 169.958 74.9513 169.762C74.797 169.566 74.7521 169.5 74.7392 169.507Z" fill="#263238"/>
<g opacity="0.3">
<path d="M54.6585 212.707C53.6881 221.924 53.3733 230.613 52.3901 239.823C52.2616 241.091 52.1395 242.436 52.7307 243.567C53.5982 245.219 55.6288 245.755 57.428 246.134C62.286 247.146 67.311 248.675 72.1689 249.688C64.7021 249.537 57.0167 248.675 49.5499 248.531C48.9716 248.531 47.288 248.427 47.288 248.427C47.288 248.427 47.7249 246.029 47.847 245.455C50.3274 234.023 52.1845 224.139 54.6585 212.707Z" fill="black"/>
</g>
<g opacity="0.3">
<path d="M125.202 231.991C131.409 224.27 133.459 213.615 131.383 203.862C130.034 214.314 127.528 223.538 125.202 231.991Z" fill="black"/>
</g>
<g opacity="0.3">
<path d="M105.66 234.291C103.626 232.463 102.123 230.103 101.315 227.468C100.507 224.833 100.425 222.023 101.079 219.344C101.779 216.633 103.225 214.164 103.797 211.42C104.401 208.533 103.996 205.541 103.861 202.595C103.726 199.648 103.913 196.513 105.519 194.05C106.406 192.691 107.71 191.548 108.122 189.974C108.533 188.399 108.012 186.923 107.91 185.401C107.829 183.992 108.078 182.583 108.637 181.291C109.195 179.999 110.047 178.86 111.122 177.967C111.765 177.451 112.723 177.033 113.339 177.575C113.514 177.776 113.648 178.011 113.733 178.266C113.818 178.52 113.852 178.79 113.834 179.058C114.612 192.776 115.338 206.886 110.814 219.814C109.085 224.76 106.592 229.509 105.969 234.715" fill="black"/>
</g>
<g opacity="0.3">
<path d="M91.5236 174.779C98.033 177.477 106.02 177.849 112.845 174.204L112.125 175.243C108.983 178.444 104.273 179.678 99.8387 179.352C95.4048 179.025 91.1766 177.3 87.2054 175.269C84.3713 173.924 81.7472 172.163 79.4172 170.043C77.0729 167.912 75.4738 165.065 74.8613 161.929C79.5136 167.312 85.0206 172.081 91.5236 174.779Z" fill="black"/>
</g>
<path d="M58.8159 166.117C58.8159 166.117 55.5323 178.921 55.301 190.633C55.0697 202.346 47.2879 248.427 47.2879 248.427L88.2143 250.498L90.8232 274.329C90.8232 274.329 44.4348 284.565 31.0626 283.86C17.6904 283.154 12.1963 272.598 13.8091 256.919C13.8091 256.919 23.3194 198.459 28.6529 184.702C33.5109 172.225 42.2243 167.489 58.8159 166.117Z" fill="#A77F5B"/>
<path d="M28.653 184.682C28.653 184.682 28.563 184.904 28.4088 185.336L27.7148 187.295C27.1686 189.053 26.4296 191.666 25.575 195.069C23.8721 201.87 21.7773 211.799 19.4511 224.113C18.2881 230.273 17.0607 237.021 15.7948 244.285C15.1779 247.918 14.5353 251.669 13.8671 255.541C13.7899 256.025 13.6871 256.514 13.6357 257.011C13.5843 257.507 13.5586 257.997 13.5201 258.5C13.4815 259.003 13.4301 259.5 13.4237 260.003C13.4172 260.506 13.4237 261.009 13.4237 261.518C13.3922 263.573 13.5233 265.626 13.8157 267.659C13.9185 268.169 14.0149 268.685 14.1177 269.194L14.2333 269.985L14.4518 270.749C14.606 271.252 14.741 271.761 14.9016 272.264L15.4992 273.747C16.3446 275.741 17.5475 277.558 19.0463 279.104C20.6198 280.642 22.4758 281.849 24.5083 282.658C26.5946 283.421 28.7783 283.874 30.992 284.003C35.458 284.141 39.9882 283.592 44.4863 283.011C48.9844 282.429 53.6368 281.704 58.2698 280.881C69.5536 278.921 80.4583 276.713 90.8104 274.472H90.9518V274.322C90.0393 266.032 89.1654 258.069 88.33 250.498V250.367H88.2015L47.2752 248.329L47.3844 248.466C49.7877 236.544 51.7283 226.909 53.0713 220.285C53.7139 216.973 54.2472 214.406 54.5942 212.648C54.7677 211.786 54.8962 211.12 54.9798 210.689C55.0633 210.257 55.1019 210.035 55.1019 210.035C55.1019 210.035 55.044 210.264 54.9476 210.689C54.8512 211.113 54.7163 211.799 54.5299 212.648C54.1701 214.399 53.6367 216.966 52.9428 220.272C51.5805 226.909 49.6077 236.518 47.1595 248.434V248.571H47.2944L88.2144 250.681L88.073 250.544C88.9019 258.121 89.7694 266.085 90.6755 274.374L90.7975 274.192C80.4519 276.432 69.5472 278.634 58.2762 280.587C53.6368 281.397 49.0487 282.122 44.5056 282.723C39.9625 283.324 35.4387 283.827 31.037 283.703C28.8572 283.582 26.706 283.142 24.6497 282.396C22.6588 281.605 20.8402 280.425 19.2969 278.921C17.8276 277.4 16.6449 275.617 15.8077 273.662C15.6149 273.179 15.4221 272.689 15.2229 272.206C15.0237 271.722 14.9273 271.206 14.7795 270.703L14.5611 269.958L14.4068 269.194C14.3104 268.685 14.2076 268.182 14.1112 267.672C13.8206 265.656 13.6853 263.621 13.7064 261.584C13.7064 261.081 13.7064 260.578 13.7385 260.081C13.7707 259.585 13.8028 259.082 13.8349 258.592L13.9442 257.115C13.9956 256.625 14.092 256.142 14.1691 255.659C14.8117 251.791 15.4542 248.029 16.0968 244.397C17.3434 237.139 18.5579 230.384 19.7082 224.224C22.0086 211.904 24.0649 201.974 25.7228 195.167C26.5389 191.764 27.2778 189.144 27.8048 187.38C28.0939 186.511 28.3124 185.845 28.4473 185.388C28.5823 184.931 28.653 184.682 28.653 184.682Z" fill="#263238"/>
<path d="M34.2435 262.146C34.2949 262.146 34.8025 261.205 35.76 259.742C37.005 257.829 38.4297 256.044 40.0139 254.411C41.6034 252.781 43.3419 251.309 45.206 250.015C46.639 249.028 47.5836 248.499 47.5515 248.447C47.3113 248.527 47.0807 248.635 46.8639 248.767C46.4269 248.989 45.8165 249.342 45.0775 249.819C41.2209 252.316 37.9679 255.665 35.5608 259.617C35.1045 260.369 34.7575 261.002 34.5455 261.447C34.4133 261.664 34.3116 261.899 34.2435 262.146Z" fill="#263238"/>
<path d="M47.3844 173.302C47.6454 173.576 47.9245 173.832 48.2198 174.067C48.5614 174.349 48.8874 174.65 49.1965 174.968C49.5563 175.334 49.9997 175.726 50.4174 176.229L51.0921 176.993C51.3299 177.261 51.5419 177.562 51.7797 177.862C52.2616 178.457 52.705 179.169 53.1805 179.868C55.1807 183.039 56.509 186.598 57.081 190.32C57.1902 191.182 57.3188 191.992 57.338 192.763C57.338 193.148 57.3959 193.521 57.3959 193.88C57.3959 194.239 57.3959 194.579 57.3959 194.906C57.3959 195.559 57.3316 196.153 57.2995 196.676C57.2764 197.114 57.2292 197.55 57.1581 197.983C57.0893 198.36 57.0464 198.742 57.0296 199.126C57.1477 198.762 57.2337 198.388 57.2866 198.009C57.3793 197.578 57.4458 197.141 57.4858 196.702C57.564 196.113 57.6112 195.52 57.6272 194.925C57.6272 194.592 57.6272 194.272 57.6593 193.88C57.6915 193.488 57.6593 193.148 57.6208 192.756C57.6208 191.979 57.4923 191.149 57.3959 190.281C56.8522 186.504 55.5058 182.892 53.4504 179.698C52.9556 178.979 52.5058 178.28 52.0046 177.692C51.7604 177.392 51.5355 177.085 51.2977 176.824L50.5973 176.066C50.1604 175.569 49.7041 175.184 49.3121 174.825C48.9902 174.513 48.649 174.223 48.2904 173.956C48.0066 173.713 47.7035 173.495 47.3844 173.302Z" fill="#263238"/>
<path d="M106.708 198.375C107.389 196.447 109.047 194.925 109.387 192.913C109.651 191.345 109.066 189.771 108.925 188.19C108.629 184.852 110.351 180.305 111.527 177.176C112.755 173.91 115.171 172.336 112.768 169.507L112.986 168.266C117.484 167.613 122.361 171.989 122.316 176.628C123.936 177.32 125.339 178.449 126.374 179.893C127.408 181.336 128.035 183.04 128.186 184.82C128.337 186.6 128.006 188.388 127.23 189.99C126.454 191.593 125.261 192.949 123.781 193.913C124.334 198.224 124.861 202.758 123.248 206.782C121.635 210.806 117.079 213.968 113.089 212.406C110.364 211.348 108.738 208.533 107.608 205.802C106.631 203.444 105.853 200.778 106.708 198.375Z" fill="#263238"/>
<path d="M113.609 176.49C116.667 175.366 120.038 175.511 122.991 176.894C122.622 176.579 122.199 176.333 121.744 176.17C120.666 175.718 119.517 175.462 118.351 175.413C117.188 175.359 116.024 175.516 114.914 175.876C114.446 175.998 114.004 176.206 113.609 176.49Z" fill="#455A64"/>
<path d="M112.337 195.748C112.456 195.85 112.591 195.932 112.735 195.99C113.113 196.181 113.507 196.338 113.911 196.46C115.254 196.867 116.664 196.996 118.057 196.839C119.45 196.682 120.798 196.242 122.021 195.546C122.392 195.341 122.743 195.101 123.068 194.827C123.3 194.638 123.415 194.52 123.402 194.501C123.39 194.481 122.843 194.86 121.912 195.337C119.453 196.579 116.642 196.896 113.976 196.232C112.96 195.971 112.363 195.696 112.337 195.748Z" fill="#455A64"/>
<path d="M110.159 192.848C110.216 192.881 110.801 191.816 111.881 190.235C112.536 189.324 113.242 188.452 113.995 187.622C114.929 186.616 115.927 185.673 116.983 184.8C118.05 183.944 119.173 183.163 120.344 182.461C121.308 181.899 122.304 181.393 123.325 180.946C125.073 180.188 126.217 179.874 126.198 179.816C125.92 179.842 125.646 179.901 125.381 179.992C125.124 180.057 124.81 180.149 124.45 180.279C124.09 180.41 123.672 180.534 123.235 180.724C122.189 181.14 121.173 181.631 120.196 182.194C118.997 182.886 117.852 183.67 116.771 184.539C115.702 185.418 114.699 186.377 113.77 187.407C113.019 188.256 112.323 189.155 111.688 190.098C111.405 190.496 111.193 190.875 110.994 191.208C110.795 191.542 110.634 191.829 110.512 192.071C110.369 192.317 110.251 192.578 110.159 192.848Z" fill="#455A64"/>
<path d="M114.059 173.799C114.143 173.851 114.811 172.793 115.955 171.839C117.099 170.885 118.236 170.356 118.197 170.258C117.278 170.459 116.429 170.911 115.743 171.565C114.99 172.138 114.407 172.911 114.059 173.799Z" fill="#455A64"/>
<path d="M109.677 197.95C109.677 197.996 110.486 198.44 111.759 199.256C113.408 200.348 114.953 201.595 116.372 202.98C117.781 204.376 119.053 205.907 120.17 207.553C121.031 208.814 121.487 209.65 121.539 209.617C121.474 209.402 121.383 209.196 121.269 209.003C121.083 208.618 120.774 208.069 120.369 207.416C119.294 205.715 118.031 204.146 116.604 202.738C115.176 201.327 113.591 200.091 111.881 199.054C111.238 198.662 110.679 198.368 110.294 198.185C110.101 198.074 109.893 197.995 109.677 197.95Z" fill="white"/>
<path d="M120.96 193.358C120.984 193.14 120.984 192.921 120.96 192.704C120.944 192.098 120.891 191.494 120.8 190.895C120.197 186.9 118.385 183.197 115.614 180.299C115.199 179.863 114.757 179.455 114.29 179.077C114.13 178.925 113.951 178.796 113.757 178.692C113.719 178.738 114.4 179.345 115.441 180.462C118.074 183.395 119.854 187.013 120.581 190.914C120.858 192.41 120.903 193.358 120.96 193.358Z" fill="white"/>
<path d="M112.086 208.389C112.363 207.879 112.612 207.353 112.832 206.815C114.049 204.299 115.865 202.133 118.114 200.511C118.975 199.857 119.553 199.557 119.527 199.511C118.977 199.697 118.457 199.965 117.985 200.308C116.806 201.08 115.745 202.024 114.837 203.111C113.926 204.194 113.179 205.41 112.62 206.717C112.363 207.245 112.184 207.808 112.086 208.389Z" fill="#455A64"/>
<path d="M106.245 215.202C107.395 213.347 109.021 211.511 111.167 211.322L117.992 213.615C118.987 214.987 119.598 216.608 119.758 218.304C119.919 220.001 119.624 221.711 118.904 223.25C118.017 224.854 116.938 226.34 115.691 227.673C114.522 229.084 113.397 230.613 112.967 232.403C112.536 234.193 112.967 236.322 114.412 237.407C112.677 236.731 111.2 235.508 110.197 233.918C109.992 235.393 110.293 236.896 111.052 238.171C106.836 236.74 103.88 232.533 103.199 228.072C102.518 223.61 103.868 219.03 106.245 215.202Z" fill="#263238"/>
<path d="M107.036 208.905C107.129 208.624 107.289 208.37 107.501 208.165C107.712 207.96 107.969 207.81 108.25 207.729C109.111 207.54 109.87 208.271 110.538 208.859C111.749 209.898 113.182 210.635 114.722 211.011C116.263 211.388 117.869 211.394 119.412 211.028H119.528C119.839 211.227 120.095 211.503 120.27 211.832C120.446 212.16 120.535 212.529 120.53 212.903C120.422 213.539 120.105 214.119 119.63 214.549C118.554 215.552 117.157 216.125 115.698 216.163C114.249 216.191 112.81 215.927 111.463 215.385C110.077 214.937 108.83 214.129 107.845 213.04C107.358 212.488 107.026 211.813 106.883 211.085C106.741 210.358 106.793 209.605 107.036 208.905Z" fill="#455A64"/>
<path d="M241.118 194.788L237.192 218.959L202.55 252.856L173.068 268.502L125.966 255.201L124.957 249.642L150.462 232.096L179.217 207.076C179.217 207.076 188.631 179.391 191.908 173.355L241.118 194.788Z" fill="white"/>
<path d="M241.118 194.788C241.118 194.788 240.835 194.651 240.263 194.396L237.693 193.273L227.913 188.981L191.928 173.244L191.819 173.198L191.767 173.296C190.533 175.706 189.512 178.293 188.458 180.952C187.404 183.611 186.382 186.368 185.348 189.196C183.279 194.858 181.175 200.802 179.037 207.03L179.082 206.965L150.327 231.978L124.822 249.498L124.732 249.564V249.675C124.797 250.008 124.861 250.374 124.925 250.74C125.202 252.242 125.478 253.745 125.748 255.227V255.332L125.844 255.365L172.946 268.658H173.004H173.061L202.537 252.98L237.249 219.03C238.49 211.289 239.453 205.24 240.115 201.125C240.437 199.08 240.687 197.512 240.854 196.454C240.931 195.931 240.996 195.533 241.034 195.265C241.073 194.997 241.092 194.867 241.092 194.867L241.015 195.272C240.97 195.552 240.899 195.925 240.809 196.474C240.636 197.538 240.372 199.087 240.025 201.157C239.383 205.26 238.355 211.283 237.076 218.998V218.946C228.362 227.438 216.513 239.007 202.376 252.804H202.408L172.914 268.436H173.029L125.934 255.123L126.056 255.254C125.786 253.764 125.51 252.268 125.24 250.759C125.169 250.4 125.105 250.034 125.041 249.694L124.97 249.864L150.545 232.226L179.288 207.193H179.32V207.154C181.441 200.931 183.536 194.984 185.605 189.314C186.633 186.487 187.663 183.739 188.696 181.07C189.743 178.418 190.765 175.844 191.979 173.44L191.825 173.492L227.771 189.085L237.622 193.344L240.192 194.448L241.118 194.788Z" fill="#263238"/>
<path d="M179.211 207.069C179.346 207.171 179.49 207.261 179.642 207.337L180.927 208.049C182.038 208.663 183.651 209.526 185.663 210.577C189.679 212.681 195.301 215.49 201.554 218.371C207.806 221.252 213.615 223.642 217.843 225.263C219.951 226.073 221.667 226.713 222.862 227.124L224.244 227.601C224.4 227.664 224.561 227.712 224.725 227.745C224.576 227.665 224.421 227.595 224.263 227.536L222.907 227L217.927 225.04C213.731 223.362 207.967 220.938 201.689 218.064C195.411 215.189 189.807 212.406 185.765 210.362L180.991 207.932L179.706 207.278C179.548 207.192 179.383 207.122 179.211 207.069Z" fill="#263238"/>
<path d="M150.905 231.958C150.873 232.043 162.407 236.786 176.666 242.554C190.925 248.322 202.511 252.915 202.55 252.83C202.588 252.745 191.054 248.002 176.789 242.234C162.523 236.466 150.937 231.867 150.905 231.958Z" fill="#263238"/>
<path d="M232.713 223.061C232.713 223.061 230.47 222.258 230.008 220.938C229.545 219.618 229.635 218.573 230.008 218.103C230.38 217.632 236.883 214.889 237.532 214.699C238.181 214.51 243.759 214.046 244.035 217.443C244.117 218.941 243.66 220.417 242.75 221.598C242.75 221.598 244.89 225.752 244.89 226.791C244.89 227.83 243.868 229.437 243.958 230.286C244.048 231.135 245.886 233.213 245.243 234.918C244.601 236.623 243.855 236.877 243.855 238.125C243.855 239.373 244.318 240.3 243.855 241.052C243.393 241.803 240.417 245.683 238.072 246.154C235.727 246.624 224.507 248.231 224.507 248.231L222.836 249.368C222.836 249.368 217.908 250.877 215.305 246.441C212.703 242.005 213.172 242.28 213.172 242.28L221.641 234.055C221.641 234.055 220.626 232.096 221.815 231.024C222.426 230.592 223.124 230.302 223.858 230.175C223.858 230.175 223.113 227.34 224.501 226.393C225.889 225.445 232.713 223.061 232.713 223.061Z" fill="#FFBE9D"/>
<path d="M241.998 236.962C241.907 236.915 241.81 236.882 241.709 236.864C241.516 236.812 241.227 236.734 240.861 236.655C240.115 236.486 239.036 236.277 237.686 236.087C234.163 235.593 230.595 235.505 227.052 235.826H226.974L226.936 235.885C226.867 235.972 226.807 236.066 226.756 236.166C226.627 236.449 226.561 236.758 226.561 237.07C226.561 237.383 226.627 237.691 226.756 237.975C226.994 238.509 227.378 238.962 227.861 239.282C228.757 239.811 229.702 240.249 230.682 240.588L235.367 242.469L235.302 242.365C235.35 243.365 235.762 244.31 236.459 245.017C236.64 245.202 236.841 245.366 237.057 245.507C237.211 245.599 237.294 245.638 237.301 245.625C237.031 245.413 236.778 245.182 236.543 244.932C235.914 244.224 235.552 243.312 235.521 242.358V242.287H235.45L230.791 240.327C229.838 239.982 228.919 239.544 228.048 239.02C227.614 238.732 227.272 238.321 227.064 237.838C226.957 237.599 226.901 237.34 226.901 237.077C226.901 236.814 226.957 236.554 227.064 236.316C227.106 236.236 227.154 236.16 227.206 236.087L227.09 236.152C230.614 235.837 234.16 235.89 237.674 236.309C239.017 236.473 240.103 236.642 240.848 236.773C241.226 236.864 241.611 236.927 241.998 236.962Z" fill="#EB996E"/>
<path d="M223.8 230.168C223.8 230.168 223.8 230.24 223.871 230.364C223.969 230.539 224.105 230.689 224.269 230.802C224.529 230.988 224.829 231.108 225.143 231.155C225.552 231.201 225.966 231.183 226.37 231.102C228.131 230.769 230.541 230.273 233.208 229.711C235.534 229.215 237.667 228.751 239.299 228.405H239.222L241.709 229.365C242.007 229.505 242.32 229.612 242.641 229.685C242.362 229.508 242.07 229.355 241.767 229.228L239.351 228.13H239.319H239.274C237.629 228.457 235.495 228.894 233.163 229.391C230.502 229.953 228.093 230.488 226.351 230.88C225.692 231.086 224.98 231.023 224.366 230.704C224.146 230.563 223.954 230.381 223.8 230.168Z" fill="#EB996E"/>
<path d="M221.641 234.055C221.641 234.055 221.641 234.134 221.699 234.258C221.788 234.439 221.905 234.604 222.046 234.748C222.592 235.253 223.294 235.548 224.031 235.584C226.373 235.749 228.723 235.771 231.068 235.649C232.443 235.597 233.754 235.473 234.923 235.382C235.966 235.284 237.016 235.308 238.053 235.453C238.751 235.475 239.431 235.683 240.025 236.054C240.43 236.335 240.61 236.564 240.668 236.538C240.726 236.512 240.668 236.472 240.552 236.361C240.43 236.206 240.289 236.066 240.135 235.943C239.888 235.745 239.61 235.59 239.312 235.486C238.92 235.359 238.518 235.267 238.11 235.212C237.062 235.032 235.996 234.984 234.936 235.068C233.747 235.146 232.449 235.257 231.081 235.31C228.35 235.434 225.856 235.427 224.076 235.349C223.376 235.336 222.699 235.09 222.149 234.65C221.956 234.474 221.785 234.274 221.641 234.055Z" fill="#EB996E"/>
<path d="M220.195 239.412C221.146 238.985 222.117 238.608 223.106 238.282C224.77 237.831 226.191 237.91 226.191 237.805C225.136 237.627 224.057 237.678 223.023 237.955C221.99 238.232 221.026 238.729 220.195 239.412Z" fill="#EB996E"/>
<path d="M231.428 223.532C231.97 223.453 232.506 223.329 233.028 223.159C234.004 222.898 235.36 222.565 236.883 222.258C238.406 221.951 239.768 221.729 240.739 221.604C241.284 221.558 241.824 221.462 242.352 221.317C241.803 221.267 241.251 221.282 240.707 221.363C239.388 221.481 238.077 221.675 236.78 221.944C235.478 222.205 234.191 222.539 232.925 222.944C232.405 223.079 231.902 223.276 231.428 223.532Z" fill="#EB996E"/>
<path d="M94.5245 253.196C94.5245 253.196 105.101 244.174 107.126 243.854C109.15 243.534 112.421 243.201 113.198 243.854C113.976 244.507 133.285 249.733 133.285 249.733C134.341 250.359 135.149 251.342 135.566 252.51C135.714 252.981 135.678 253.491 135.465 253.935C135.252 254.379 134.878 254.723 134.423 254.894C133.163 255.376 131.788 255.454 130.484 255.116C130.7 255.664 130.77 256.259 130.688 256.843C130.605 257.426 130.373 257.978 130.015 258.441C128.774 260.022 124.912 259.095 124.912 259.095C124.912 259.095 126.435 263.053 122.695 264.157C122.695 264.157 124.103 265.268 122.695 267.012C121.288 268.756 119.855 270.527 117.092 270.337C114.329 270.148 108.996 270.337 108.996 270.337H99.0547C98.2049 269.929 97.3183 269.605 96.4073 269.37C95.4755 269.214 90.624 270.298 90.624 270.298L88.7348 253.653L94.5245 253.196Z" fill="#FFBE9D"/>
<path d="M110.949 250.681C111.199 250.771 111.458 250.836 111.72 250.877L113.834 251.321C115.614 251.7 118.062 252.288 120.761 252.974C123.46 253.66 125.902 254.28 127.688 254.653C128.582 254.842 129.308 254.986 129.809 255.071C130.068 255.134 130.333 255.169 130.599 255.175C130.354 255.069 130.097 254.99 129.835 254.94L127.74 254.417L120.838 252.641C118.14 251.955 115.698 251.406 113.879 251.086C112.98 250.923 112.254 250.805 111.746 250.746C111.484 250.692 111.216 250.67 110.949 250.681Z" fill="#EB996E"/>
<path d="M111.161 256.919C111.829 257.074 112.508 257.173 113.192 257.213C114.445 257.357 116.18 257.546 118.088 257.821C119.997 258.095 121.706 258.415 122.946 258.676C123.608 258.85 124.279 258.978 124.957 259.062C124.326 258.791 123.669 258.583 122.998 258.441C121.394 258.036 119.77 257.717 118.133 257.488C116.205 257.213 114.477 257.056 113.211 256.971C112.531 256.892 111.844 256.874 111.161 256.919Z" fill="#EB996E"/>
<path d="M110.949 263.752C111.493 263.972 112.057 264.136 112.633 264.242C114 264.585 115.389 264.829 116.79 264.973C118.209 265.094 119.637 264.977 121.018 264.627C121.594 264.521 122.152 264.332 122.676 264.066C122.101 264.144 121.531 264.253 120.967 264.392C119.603 264.67 118.208 264.751 116.822 264.634C115.196 264.484 113.738 264.203 112.677 263.981C112.11 263.85 111.531 263.774 110.949 263.752Z" fill="#EB996E"/>
<path d="M0.231232 282.364H299.58V295.259H0.231232V282.364Z" fill="#455A64"/>
<path d="M299.58 282.396H298.064H293.566L276.254 282.357L212.375 282.272L0.218458 282.161H-1.88279e-05V295.527H0.218458L299.574 295.324H299.625V295.259C299.625 290.83 299.625 287.603 299.593 285.46C299.561 283.317 299.593 282.35 299.593 282.35C299.593 282.808 299.593 286.479 299.535 295.246L299.593 295.18L0.237735 294.971L0.462644 295.246V282.396L0.237735 282.664L212.227 282.553L276.158 282.474L293.508 282.435H298.006L299.58 282.396Z" fill="#263238"/>
<path d="M236.163 282.553C236.163 282.553 236.163 282.605 236.26 282.69C236.356 282.775 236.427 282.913 236.575 283.082C237.013 283.553 237.52 283.952 238.078 284.265C238.979 284.755 239.958 285.081 240.97 285.225C242.307 285.413 243.658 285.469 245.005 285.395C246.632 285.312 248.252 285.129 249.857 284.846C251.686 284.509 253.534 284.291 255.39 284.193C259.309 284.056 263.576 285.062 267.837 286.571C272.097 288.08 276.094 289.785 279.911 290.823C281.71 291.336 283.548 291.699 285.405 291.908C287.031 292.078 288.669 292.078 290.295 291.908C292.653 291.685 294.94 290.967 297.01 289.798C297.766 289.378 298.469 288.867 299.105 288.276C299.055 288.301 299.007 288.332 298.963 288.367L298.559 288.661C298.053 289.032 297.523 289.366 296.971 289.661C294.901 290.765 292.632 291.432 290.301 291.62C288.695 291.786 287.076 291.786 285.469 291.62C283.627 291.404 281.805 291.037 280.02 290.523C276.235 289.471 272.264 287.76 267.972 286.244C263.679 284.729 259.374 283.716 255.39 283.879C253.522 283.985 251.663 284.215 249.825 284.565C248.231 284.856 246.622 285.052 245.005 285.153C243.675 285.24 242.339 285.201 241.015 285.036C240.021 284.912 239.056 284.613 238.162 284.154C237.413 283.736 236.738 283.196 236.163 282.553Z" fill="#263238"/>
<path d="M268.91 282.749C269.193 283.026 269.496 283.281 269.816 283.513C270.685 284.159 271.6 284.737 272.553 285.245C275.737 286.916 279.252 287.834 282.835 287.929C286.428 288.065 290.003 287.34 293.27 285.813C294.263 285.359 295.129 284.661 295.789 283.781C295.961 283.543 296.099 283.281 296.2 283.004C296.265 282.812 296.29 282.714 296.277 282.71C296.104 283.055 295.907 283.387 295.686 283.703C294.999 284.517 294.137 285.161 293.167 285.584C289.925 287.004 286.414 287.674 282.886 287.544C279.342 287.448 275.858 286.584 272.669 285.009C271.714 284.527 270.789 283.986 269.899 283.389C269.586 283.151 269.255 282.937 268.91 282.749Z" fill="#263238"/>
<path d="M198.656 290.921C198.656 290.921 198.495 290.974 198.193 291.085C197.742 291.243 197.281 291.365 196.812 291.451C195.023 291.763 193.184 291.479 191.568 290.64V290.804C193.464 289.376 195.713 288.514 198.065 288.315C201.042 288.02 204.029 288.784 206.515 290.477C206.673 290.563 206.812 290.682 206.923 290.826C207.034 290.97 207.114 291.136 207.157 291.313C207.157 291.493 207.104 291.668 207.004 291.816C206.904 291.964 206.763 292.078 206.598 292.143C206.235 292.338 205.845 292.475 205.441 292.548L204.156 292.829C202.447 293.208 200.673 293.58 198.842 293.841C196.974 294.136 195.084 294.263 193.194 294.22C192.221 294.197 191.25 294.105 190.289 293.946C189.807 293.868 189.325 293.776 188.843 293.652C188.365 293.548 187.898 293.397 187.449 293.201C186.749 292.923 186.127 292.474 185.637 291.895C185.412 291.629 185.261 291.308 185.2 290.963C185.139 290.618 185.17 290.263 185.29 289.935C185.587 289.273 186.085 288.726 186.71 288.374C187.341 287.991 188.006 287.67 188.696 287.413C191.367 286.424 194.171 285.851 197.011 285.715C205.126 285.276 213.145 287.664 219.745 292.483C220.664 293.175 221.365 293.724 221.815 294.129L222.341 294.573L222.528 294.717C222.528 294.717 222.476 294.651 222.367 294.547L221.866 294.077C221.429 293.652 220.741 293.084 219.835 292.372C217.238 290.389 214.378 288.79 211.34 287.622C206.776 285.877 201.907 285.108 197.036 285.362C194.159 285.486 191.317 286.062 188.612 287.067C187.896 287.326 187.208 287.657 186.556 288.054C185.863 288.446 185.313 289.055 184.988 289.791C184.845 290.181 184.806 290.602 184.876 291.012C184.946 291.422 185.122 291.806 185.386 292.123C185.919 292.743 186.591 293.223 187.346 293.521C187.812 293.729 188.299 293.884 188.798 293.985C189.287 294.116 189.782 294.207 190.276 294.292C191.252 294.451 192.238 294.543 193.226 294.567C195.138 294.609 197.05 294.478 198.938 294.175C200.789 293.907 202.563 293.521 204.278 293.142L205.564 292.855C206.012 292.777 206.446 292.627 206.849 292.411C207.052 292.3 207.229 292.146 207.369 291.96C207.521 291.764 207.591 291.515 207.562 291.268C207.511 291.044 207.415 290.833 207.279 290.649C207.142 290.466 206.97 290.314 206.772 290.203C204.219 288.482 201.157 287.715 198.11 288.034C195.712 288.259 193.426 289.165 191.51 290.647L191.395 290.738L191.529 290.81C193.185 291.65 195.067 291.907 196.882 291.542C197.501 291.428 198.099 291.219 198.656 290.921Z" fill="#263238"/>
<path d="M160.146 282.886C160.007 283.083 159.907 283.305 159.85 283.54C159.652 284.172 159.587 284.84 159.657 285.5C159.754 287.159 160.788 289.341 162.568 291.131C163.384 291.998 164.299 292.763 165.293 293.41C166.118 293.93 167 294.351 167.921 294.665C168.551 294.871 169.195 295.028 169.849 295.135C170.082 295.189 170.323 295.209 170.562 295.194C170.562 295.128 169.559 294.985 168.03 294.423C167.144 294.078 166.295 293.64 165.498 293.116C164.538 292.467 163.652 291.711 162.857 290.863C161.116 289.119 160.094 287.048 159.934 285.46C159.844 284.596 159.916 283.723 160.146 282.886Z" fill="#263238"/>
<path d="M106.393 294.58C106.827 294.118 107.286 293.682 107.768 293.273C109.123 292.179 110.736 291.463 112.446 291.196C113.632 291.027 114.838 291.063 116.013 291.301C117.383 291.612 118.787 291.739 120.189 291.679C121.725 291.536 123.1 290.621 124.347 289.667C125.596 288.619 127.01 287.792 128.53 287.224C131.54 286.234 134.773 286.186 137.809 287.087C140.275 287.813 142.599 288.967 144.678 290.497C146.08 291.518 147.409 292.637 148.656 293.848L149.678 294.809C149.788 294.932 149.911 295.044 150.044 295.142C149.949 295.005 149.844 294.876 149.729 294.756C149.517 294.515 149.189 294.162 148.759 293.718C147.542 292.464 146.229 291.31 144.833 290.268C142.747 288.681 140.402 287.48 137.906 286.721C134.798 285.787 131.485 285.83 128.402 286.845C126.847 287.424 125.401 288.27 124.129 289.347C122.888 290.308 121.59 291.17 120.151 291.307C118.778 291.37 117.402 291.253 116.058 290.961C114.853 290.733 113.619 290.713 112.408 290.902C110.66 291.196 109.023 291.966 107.672 293.13C107.173 293.542 106.742 294.031 106.393 294.58Z" fill="#263238"/>
<path d="M58.3982 282.488C58.4937 282.644 58.6034 282.79 58.7259 282.925C59.0465 283.343 59.3875 283.744 59.7477 284.127C61.0699 285.552 62.5343 286.832 64.1173 287.949C66.4689 289.639 69.0154 291.03 71.6998 292.09C73.2865 292.735 74.9219 293.248 76.5899 293.626C78.3828 294.056 80.2163 294.288 82.0583 294.318C85.6195 294.294 89.143 293.574 92.4361 292.195C95.1116 291.111 97.6454 289.696 99.98 287.981C101.547 286.842 102.999 285.549 104.317 284.121C104.799 283.631 105.108 283.2 105.339 282.925C105.459 282.787 105.571 282.64 105.673 282.488C105.527 282.601 105.396 282.733 105.281 282.879C105.031 283.134 104.703 283.533 104.208 284.023C102.863 285.408 101.394 286.664 99.8194 287.772C97.4878 289.445 94.9655 290.825 92.3075 291.881C89.0528 293.225 85.5773 293.93 82.0647 293.959C80.2481 293.931 78.4392 293.712 76.667 293.305C75.015 292.937 73.3948 292.435 71.8219 291.803C69.156 290.763 66.6197 289.408 64.265 287.766C62.6827 286.665 61.2067 285.414 59.8569 284.029C59.3621 283.559 59.0408 283.134 58.7902 282.879C58.6728 282.736 58.5415 282.604 58.3982 282.488Z" fill="#263238"/>
<path d="M65.2547 282.396C65.329 282.475 65.4133 282.543 65.5053 282.599C65.6852 282.717 65.9358 282.906 66.2828 283.115C68.6964 284.629 71.2869 285.829 73.9939 286.688C75.9933 287.34 78.0761 287.69 80.1756 287.727C83.9862 287.642 87.7323 286.71 91.1509 284.996C92.1779 284.493 93.1698 283.919 94.1197 283.278C94.4603 283.056 94.7044 282.86 94.8779 282.73C94.9669 282.67 95.0488 282.6 95.1221 282.521C94.749 282.715 94.3884 282.933 94.0426 283.174C93.0685 283.763 92.0646 284.299 91.0353 284.781C87.6323 286.407 83.9344 287.297 80.1756 287.394C78.118 287.326 76.0802 286.963 74.1224 286.316C72.5059 285.827 70.9254 285.222 69.3929 284.507C68.1078 283.892 67.0604 283.344 66.3599 282.945C66.0032 282.739 65.634 282.556 65.2547 282.396Z" fill="#263238"/>
<path d="M34.7961 283.703C34.9112 283.72 35.028 283.72 35.1431 283.703L36.1263 283.644L36.8267 283.592H37.6749C38.2789 283.592 38.9601 283.592 39.7247 283.592L40.9135 283.657L42.1987 283.801C43.0919 283.879 44.0236 284.088 45.0132 284.252C47.142 284.703 49.2342 285.316 51.272 286.087C53.2996 286.887 55.2669 287.837 57.1581 288.929C57.9999 289.465 58.8288 289.942 59.5357 290.471L60.5895 291.216L61.5148 291.96C62.1189 292.418 62.6201 292.881 63.0699 293.267L63.7125 293.822C63.886 294.005 64.0531 294.168 64.2073 294.325L64.8949 295.011C64.9757 295.093 65.0639 295.167 65.1583 295.233C65.1005 295.134 65.0315 295.042 64.9527 294.959L64.3101 294.227L63.8346 293.698L63.2306 293.116C62.7936 292.698 62.2988 292.215 61.7012 291.738L60.7823 290.98L59.7349 290.209C59.028 289.661 58.1991 289.171 57.3509 288.622C53.5779 286.347 49.4479 284.75 45.1417 283.899C44.1393 283.749 43.214 283.546 42.2951 283.487L41.0099 283.357L39.8019 283.318C39.1148 283.281 38.4262 283.281 37.7391 283.318H36.8909L36.1841 283.403L35.2074 283.533C35.0608 283.562 34.9212 283.62 34.7961 283.703Z" fill="#263238"/>
<path d="M100.982 294.325C101.466 293.619 102.017 292.962 102.627 292.365C104.367 290.81 106.429 289.676 108.661 289.047C110.203 288.592 111.775 288.249 113.365 288.021C115.087 287.753 116.938 287.544 118.872 287.211C120.893 286.85 122.889 286.357 124.848 285.735C126.929 285.055 129.061 284.549 131.223 284.219C135.438 283.798 139.692 284.377 143.65 285.911C145.376 286.553 147.063 287.299 148.701 288.145C150.25 288.929 151.67 289.7 152.955 290.412C155.525 291.849 157.581 293.077 158.995 293.927L160.627 294.907L161.051 295.155C161.146 295.216 161.197 295.242 161.206 295.233L161.071 295.129L160.666 294.848C160.306 294.6 159.773 294.247 159.072 293.803C157.684 292.914 155.654 291.66 153.083 290.19C151.798 289.458 150.391 288.674 148.842 287.878C147.197 287.013 145.502 286.252 143.766 285.598C139.761 284.035 135.452 283.449 131.184 283.886C129.004 284.216 126.855 284.73 124.758 285.421C122.814 286.046 120.833 286.543 118.827 286.911C116.899 287.244 115.055 287.466 113.333 287.753C111.729 287.993 110.144 288.351 108.591 288.825C106.337 289.488 104.267 290.675 102.544 292.294C101.913 292.875 101.385 293.562 100.982 294.325Z" fill="#263238"/>
<path d="M168.454 282.553C168.424 282.828 168.437 283.106 168.493 283.376C168.601 284.123 168.8 284.854 169.084 285.552C170.003 287.915 171.608 289.938 173.685 291.353C175.828 292.656 178.117 293.696 180.503 294.449C181.415 294.743 182.16 294.959 182.681 295.102C182.946 295.19 183.22 295.247 183.497 295.272C183.25 295.141 182.989 295.04 182.72 294.972L180.586 294.214C178.251 293.402 176.005 292.347 173.884 291.065C171.872 289.679 170.289 287.74 169.322 285.473C168.943 284.53 168.652 283.552 168.454 282.553Z" fill="#263238"/>
<path d="M237.931 295.259C237.71 295.006 237.467 294.774 237.205 294.567C236.723 294.135 235.996 293.548 235.071 292.849C232.645 291.048 230.093 289.428 227.437 288.001C224.327 286.323 221.423 284.97 219.315 284.017C218.255 283.54 217.387 283.167 216.802 282.913C216.499 282.764 216.183 282.643 215.858 282.553C216.135 282.745 216.43 282.909 216.738 283.043L219.219 284.252C221.301 285.264 224.179 286.643 227.277 288.321C229.92 289.744 232.478 291.326 234.936 293.058C235.874 293.711 236.626 294.279 237.134 294.678C237.381 294.896 237.648 295.09 237.931 295.259Z" fill="#263238"/>
<path d="M223.832 283.082C223.832 283.122 224.52 282.997 225.76 283.082C227.502 283.258 229.196 283.766 230.753 284.578C232.758 285.539 234.865 287.133 237.243 288.864C238.485 289.789 239.791 290.623 241.15 291.359C242.637 292.125 244.204 292.719 245.822 293.129C248.959 293.857 252.165 294.236 255.383 294.26C258.346 294.351 260.999 294.292 263.229 294.377C264.988 294.428 266.742 294.599 268.479 294.887C269.122 294.998 269.565 295.089 269.886 295.161C270.048 295.208 270.214 295.239 270.381 295.253C270.228 295.185 270.069 295.133 269.906 295.096C269.591 294.998 269.115 294.88 268.505 294.75C266.77 294.396 265.01 294.178 263.242 294.096C261.006 293.972 258.339 294.005 255.396 293.9C252.204 293.855 249.025 293.47 245.912 292.751C244.321 292.351 242.78 291.77 241.317 291.019C239.981 290.289 238.693 289.471 237.461 288.57C235.084 286.858 232.963 285.264 230.888 284.317C229.297 283.512 227.565 283.035 225.792 282.913C225.31 282.889 224.826 282.905 224.346 282.958C224.171 282.979 223.998 283.021 223.832 283.082Z" fill="#263238"/>
<path d="M27.7854 295.259C27.5616 295.007 27.3164 294.775 27.0529 294.567C26.5709 294.135 25.8448 293.548 24.9259 292.849C22.4974 291.051 19.9463 289.431 17.292 288.001C14.1754 286.323 11.2709 284.97 9.16323 284.017C8.10938 283.54 7.23548 283.167 6.65073 282.913C6.34876 282.766 6.03485 282.645 5.71254 282.553C5.9887 282.747 6.2837 282.911 6.59288 283.043L9.04756 284.252C11.1295 285.264 14.0148 286.643 17.112 288.321C19.7535 289.744 22.3091 291.326 24.7653 293.058C25.7034 293.711 26.4552 294.279 26.9629 294.678C27.218 294.898 27.4934 295.093 27.7854 295.259Z" fill="#263238"/>
<path d="M13.6807 283.082C13.6807 283.122 14.3747 282.997 15.6085 283.082C17.3524 283.258 19.0482 283.766 20.6078 284.578C22.6062 285.539 24.7203 287.133 27.0915 288.864C28.3339 289.789 29.6395 290.623 30.9984 291.359C32.4854 292.125 34.0525 292.719 35.67 293.129C38.8076 293.857 42.0136 294.236 45.2317 294.26C48.194 294.351 50.8543 294.292 53.0841 294.377C54.8411 294.429 56.5928 294.599 58.3276 294.887C58.9381 294.998 59.4136 295.089 59.7349 295.161C59.8965 295.208 60.0622 295.239 60.2297 295.253C60.0768 295.184 59.9175 295.131 59.7542 295.096C59.4393 294.998 58.9702 294.88 58.3533 294.75C56.618 294.396 54.8586 294.177 53.0905 294.096C50.8543 293.972 48.194 294.005 45.2446 293.9C42.0543 293.856 38.8775 293.47 35.7664 292.751C34.1752 292.353 32.6338 291.772 31.1719 291.019C29.8349 290.29 28.5469 289.472 27.3164 288.57C24.9452 286.858 22.8183 285.264 20.7492 284.317C19.1554 283.514 17.4218 283.036 15.647 282.913C15.1646 282.889 14.6812 282.905 14.2012 282.958C14.0237 282.98 13.8491 283.021 13.6807 283.082Z" fill="#263238"/>
<path d="M37.1286 282.311C37.1286 282.409 49.6398 282.494 65.0683 282.494C80.4968 282.494 93.0144 282.409 93.0144 282.311C93.0144 282.213 80.5032 282.129 65.0683 282.129C49.6334 282.129 37.1286 282.213 37.1286 282.311Z" fill="#263238"/>
</svg>
