<svg width="1080" height="1080" viewBox="0 0 1080 1080" fill="none" xmlns="http://www.w3.org/2000/svg">
<rect width="1080" height="1080" fill="#876445"/>
<path d="M492 390C492 334.772 536.772 290 592 290H703.5L661.5 351.5V351.5C623.116 351.5 592 382.616 592 421V790C592 845.228 547.228 890 492 890V890V390Z" fill="white"/>
<path d="M402 259.711L446.5 233L472.711 189L498 233L543.421 259.711L498 282L472.711 330.421L446.5 282L402 259.711Z" fill="white"/>
<path d="M377 645V645C432.228 645 477 689.772 477 745V890V890C421.772 890 377 845.228 377 790V645Z" fill="white"/>
</svg>
