<svg width="50" height="50" viewBox="0 0 50 50" fill="none" xmlns="http://www.w3.org/2000/svg">
<g clip-path="url(#clip0_79_37)">
<path d="M43.75 12.5H37.5C37.5 9.18479 36.183 6.00537 33.8388 3.66116C31.4946 1.31696 28.3152 0 25 0C21.6848 0 18.5054 1.31696 16.1612 3.66116C13.817 6.00537 12.5 9.18479 12.5 12.5H6.25C4.5924 12.5 3.00268 13.1585 1.83058 14.3306C0.65848 15.5027 0 17.0924 0 18.75L0 39.5833C0.00330804 42.345 1.10184 44.9926 3.05462 46.9454C5.00741 48.8982 7.65501 49.9967 10.4167 50H39.5833C42.345 49.9967 44.9926 48.8982 46.9454 46.9454C48.8982 44.9926 49.9967 42.345 50 39.5833V18.75C50 17.0924 49.3415 15.5027 48.1694 14.3306C46.9973 13.1585 45.4076 12.5 43.75 12.5ZM25 4.16667C27.2101 4.16667 29.3298 5.04464 30.8926 6.60744C32.4554 8.17025 33.3333 10.2899 33.3333 12.5H16.6667C16.6667 10.2899 17.5446 8.17025 19.1074 6.60744C20.6702 5.04464 22.7899 4.16667 25 4.16667V4.16667ZM45.8333 39.5833C45.8333 41.2409 45.1749 42.8306 44.0027 44.0027C42.8306 45.1749 41.2409 45.8333 39.5833 45.8333H10.4167C8.75906 45.8333 7.16935 45.1749 5.99725 44.0027C4.82515 42.8306 4.16667 41.2409 4.16667 39.5833V18.75C4.16667 18.1975 4.38616 17.6676 4.77686 17.2769C5.16756 16.8862 5.69747 16.6667 6.25 16.6667H12.5V20.8333C12.5 21.3859 12.7195 21.9158 13.1102 22.3065C13.5009 22.6972 14.0308 22.9167 14.5833 22.9167C15.1359 22.9167 15.6658 22.6972 16.0565 22.3065C16.4472 21.9158 16.6667 21.3859 16.6667 20.8333V16.6667H33.3333V20.8333C33.3333 21.3859 33.5528 21.9158 33.9435 22.3065C34.3342 22.6972 34.8641 22.9167 35.4167 22.9167C35.9692 22.9167 36.4991 22.6972 36.8898 22.3065C37.2805 21.9158 37.5 21.3859 37.5 20.8333V16.6667H43.75C44.3025 16.6667 44.8324 16.8862 45.2231 17.2769C45.6138 17.6676 45.8333 18.1975 45.8333 18.75V39.5833Z" fill="#C58940"/>
</g>
<defs>
<clipPath id="clip0_79_37">
<rect width="50" height="50" fill="white"/>
</clipPath>
</defs>
</svg>
