<svg width="50" height="50" viewBox="0 0 50 50" fill="none" xmlns="http://www.w3.org/2000/svg">
<g clip-path="url(#clip0_39_15)">
<path d="M25.0002 12.5C23.352 12.5 21.7409 12.9887 20.3705 13.9044C19 14.8201 17.9319 16.1216 17.3012 17.6443C16.6705 19.167 16.5055 20.8426 16.827 22.4591C17.1485 24.0756 17.9422 25.5605 19.1077 26.7259C20.2731 27.8913 21.7579 28.685 23.3745 29.0065C24.991 29.3281 26.6665 29.1631 28.1892 28.5323C29.712 27.9016 31.0134 26.8335 31.9291 25.4631C32.8448 24.0927 33.3335 22.4815 33.3335 20.8333C33.3335 18.6232 32.4556 16.5036 30.8928 14.9408C29.33 13.378 27.2103 12.5 25.0002 12.5ZM25.0002 25C24.1761 25 23.3705 24.7556 22.6853 24.2978C22.0001 23.84 21.4661 23.1892 21.1507 22.4278C20.8353 21.6665 20.7528 20.8287 20.9136 20.0205C21.0744 19.2122 21.4712 18.4698 22.0539 17.8871C22.6366 17.3043 23.3791 16.9075 24.1873 16.7467C24.9956 16.586 25.8334 16.6685 26.5947 16.9838C27.3561 17.2992 28.0068 17.8333 28.4647 18.5185C28.9225 19.2037 29.1669 20.0092 29.1669 20.8333C29.1669 21.9384 28.7279 22.9982 27.9465 23.7796C27.1651 24.561 26.1053 25 25.0002 25Z" fill="#C58940"/>
<path d="M24.9999 50.0006C23.2456 50.0096 21.5147 49.5981 19.9521 48.8007C18.3895 48.0033 17.0407 46.8431 16.0186 45.4173C8.07902 34.4652 4.05194 26.2318 4.05194 20.9443C4.05194 15.3886 6.25895 10.0604 10.1874 6.13192C14.1159 2.20342 19.4441 -0.00358582 24.9999 -0.00358582C30.5556 -0.00358582 35.8838 2.20342 39.8123 6.13192C43.7408 10.0604 45.9478 15.3886 45.9478 20.9443C45.9478 26.2318 41.9207 34.4652 33.9811 45.4173C32.959 46.8431 31.6102 48.0033 30.0476 48.8007C28.485 49.5981 26.7541 50.0096 24.9999 50.0006ZM24.9999 4.54433C20.6507 4.54929 16.4811 6.27918 13.4058 9.35448C10.3305 12.4298 8.60065 16.5994 8.59569 20.9485C8.59569 25.136 12.5394 32.8798 19.6978 42.7527C20.3055 43.5897 21.1027 44.271 22.0243 44.7407C22.9458 45.2105 23.9655 45.4554 24.9999 45.4554C26.0342 45.4554 27.0539 45.2105 27.9755 44.7407C28.897 44.271 29.6942 43.5897 30.3019 42.7527C37.4603 32.8798 41.404 25.136 41.404 20.9485C41.3991 16.5994 39.6692 12.4298 36.5939 9.35448C33.5186 6.27918 29.349 4.54929 24.9999 4.54433Z" fill="#C58940"/>
</g>
<defs>
<clipPath id="clip0_39_15">
<rect width="50" height="50" fill="white"/>
</clipPath>
</defs>
</svg>
