<svg width="50" height="50" viewBox="0 0 50 50" fill="none" xmlns="http://www.w3.org/2000/svg">
<g clip-path="url(#clip0_39_52)">
<path d="M27.0831 2.08354C27.0831 1.53101 27.3026 1.0011 27.6933 0.610401C28.084 0.2197 28.6139 0.000206594 29.1664 0.000206594C34.6899 0.00627242 39.9854 2.20315 43.8911 6.10885C47.7968 10.0145 49.9936 15.3101 49.9997 20.8335C49.9997 21.3861 49.7802 21.916 49.3895 22.3067C48.9988 22.6974 48.4689 22.9169 47.9164 22.9169C47.3638 22.9169 46.8339 22.6974 46.4432 22.3067C46.0525 21.916 45.833 21.3861 45.833 20.8335C45.8281 16.4148 44.0705 12.1784 40.946 9.05391C37.8215 5.92938 33.5851 4.17184 29.1664 4.16687C28.6139 4.16687 28.084 3.94738 27.6933 3.55668C27.3026 3.16598 27.0831 2.63607 27.0831 2.08354ZM29.1664 12.5002C31.3765 12.5002 33.4961 13.3782 35.0589 14.941C36.6217 16.5038 37.4997 18.6234 37.4997 20.8335C37.4997 21.3861 37.7192 21.916 38.1099 22.3067C38.5006 22.6974 39.0305 22.9169 39.583 22.9169C40.1356 22.9169 40.6655 22.6974 41.0562 22.3067C41.4469 21.916 41.6664 21.3861 41.6664 20.8335C41.6631 17.5194 40.3451 14.3418 38.0016 11.9984C35.6581 9.65487 32.4806 8.33685 29.1664 8.33354C28.6139 8.33354 28.084 8.55303 27.6933 8.94374C27.3026 9.33444 27.0831 9.86434 27.0831 10.4169C27.0831 10.9694 27.3026 11.4993 27.6933 11.89C28.084 12.2807 28.6139 12.5002 29.1664 12.5002ZM48.1101 34.8731C49.3174 36.0838 49.9954 37.7238 49.9954 39.4335C49.9954 41.1433 49.3174 42.7833 48.1101 43.994L46.2143 46.1794C29.1518 62.5148 -12.369 21.0044 3.71435 3.88771L6.11018 1.80437C7.32219 0.630784 8.94753 -0.0184412 10.6346 -0.00284582C12.3216 0.0127495 13.9346 0.691912 15.1247 1.88771C15.1893 1.95229 19.0497 6.96687 19.0497 6.96687C20.1952 8.17027 20.8329 9.76881 20.8302 11.4302C20.8274 13.0916 20.1846 14.6881 19.0352 15.8877L16.6227 18.921C17.9578 22.165 19.9207 25.1132 22.3987 27.5962C24.8767 30.0793 27.821 32.0481 31.0622 33.3898L34.1143 30.9627C35.3141 29.8142 36.9103 29.1721 38.5712 29.1697C40.2321 29.1674 41.83 29.8051 43.033 30.9502C43.033 30.9502 48.0455 34.8085 48.1101 34.8731ZM45.2435 37.9023C45.2435 37.9023 40.258 34.0669 40.1935 34.0023C39.7643 33.5767 39.1843 33.338 38.5799 33.338C37.9755 33.338 37.3956 33.5767 36.9664 34.0023C36.9101 34.0606 32.7081 37.4085 32.7081 37.4085C32.4249 37.6339 32.0879 37.7817 31.7302 37.8372C31.3726 37.8927 31.0067 37.8541 30.6685 37.7252C26.4694 36.1618 22.6554 33.7142 19.4848 30.5483C16.3142 27.3823 13.861 23.5719 12.2914 19.3752C12.1522 19.0324 12.1069 18.6587 12.16 18.2926C12.2131 17.9264 12.3627 17.581 12.5935 17.2919C12.5935 17.2919 15.9414 13.0877 15.9977 13.0335C16.4232 12.6043 16.662 12.0244 16.662 11.42C16.662 10.8156 16.4232 10.2357 15.9977 9.80646C15.9331 9.74396 12.0977 4.75437 12.0977 4.75437C11.662 4.36376 11.0935 4.15457 10.5086 4.16968C9.9237 4.18479 9.36672 4.42305 8.95184 4.83562L6.55601 6.91896C-5.19814 21.0523 30.7831 55.0377 43.1685 43.3335L45.0664 41.146C45.5111 40.7341 45.7783 40.1653 45.8113 39.56C45.8444 38.9547 45.6407 38.3602 45.2435 37.9023Z" fill="#C58940"/>
</g>
<defs>
<clipPath id="clip0_39_52">
<rect width="50" height="50" fill="white"/>
</clipPath>
</defs>
</svg>
