<svg width="50" height="50" viewBox="0 0 50 50" fill="none" xmlns="http://www.w3.org/2000/svg">
<g clip-path="url(#clip0_39_56)">
<path d="M39.5833 2.08299H10.4167C7.65501 2.0863 5.00741 3.18483 3.05462 5.13762C1.10184 7.0904 0.00330804 9.738 0 12.4997L0 37.4997C0.00330804 40.2613 1.10184 42.9089 3.05462 44.8617C5.00741 46.8145 7.65501 47.913 10.4167 47.9163H39.5833C42.345 47.913 44.9926 46.8145 46.9454 44.8617C48.8982 42.9089 49.9967 40.2613 50 37.4997V12.4997C49.9967 9.738 48.8982 7.0904 46.9454 5.13762C44.9926 3.18483 42.345 2.0863 39.5833 2.08299ZM10.4167 6.24966H39.5833C40.8308 6.25211 42.049 6.62781 43.0812 7.32842C44.1133 8.02902 44.9122 9.02246 45.375 10.1809L29.4208 26.1372C28.2467 27.3066 26.6571 27.9631 25 27.9631C23.3429 27.9631 21.7533 27.3066 20.5792 26.1372L4.625 10.1809C5.08781 9.02246 5.88669 8.02902 6.91885 7.32842C7.951 6.62781 9.1692 6.25211 10.4167 6.24966ZM39.5833 43.7497H10.4167C8.75906 43.7497 7.16935 43.0912 5.99725 41.9191C4.82515 40.747 4.16667 39.1573 4.16667 37.4997V15.6247L17.6333 29.083C19.5888 31.0335 22.238 32.1289 25 32.1289C27.762 32.1289 30.4112 31.0335 32.3667 29.083L45.8333 15.6247V37.4997C45.8333 39.1573 45.1749 40.747 44.0028 41.9191C42.8306 43.0912 41.2409 43.7497 39.5833 43.7497Z" fill="#C58940"/>
</g>
<defs>
<clipPath id="clip0_39_56">
<rect width="50" height="50" fill="white"/>
</clipPath>
</defs>
</svg>
